<svg preserveAspectRatio="none" width="100%" height="100%" overflow="visible" style="display: block;" viewBox="0 0 13 13" fill="none" xmlns="http://www.w3.org/2000/svg">
<path id="Artwork" d="M5.75 12.25C5.75 12.664 6.086 13 6.5 13C6.914 13 7.25 12.664 7.25 12.25V7.25H12.25C12.664 7.25 13 6.914 13 6.5C13 6.086 12.664 5.75 12.25 5.75H7.25V0.75C7.25 0.336 6.914 0 6.5 0C6.086 0 5.75 0.336 5.75 0.75V5.75H0.75C0.336 5.75 0 6.086 0 6.5C0 6.914 0.336 7.25 0.75 7.25H5.75V12.25Z" fill="var(--fill-0, #1A1A1A)" fill-opacity="0.8"/>
</svg>
