<svg preserveAspectRatio="none" width="100%" height="100%" overflow="visible" style="display: block;" viewBox="0 0 10 14" fill="none" xmlns="http://www.w3.org/2000/svg">
<path id="Artwork" d="M4.71291 0.0569091C4.62445 0.0935089 4.54158 0.147763 4.46967 0.21967L0.21967 4.46967C-0.0732233 4.76256 -0.0732233 5.23744 0.21967 5.53033C0.512563 5.82322 0.987437 5.82322 1.28033 5.53033L4.25 2.56066V13.25C4.25 13.6642 4.58579 14 5 14C5.41421 14 5.75 13.6642 5.75 13.25V2.56066L8.71967 5.53033C9.01256 5.82322 9.48744 5.82322 9.78033 5.53033C10.0732 5.23744 10.0732 4.76256 9.78033 4.46967L5.53033 0.21967C5.38388 0.0732233 5.19194 0 5 0C4.89831 0 4.80134 0.0202391 4.71291 0.0569091Z" fill="var(--fill-0, #525252)"/>
</svg>
