<svg preserveAspectRatio="none" width="100%" height="100%" overflow="visible" style="display: block;" viewBox="0 0 14 14" fill="none" xmlns="http://www.w3.org/2000/svg">
<g id="Artwork">
<path d="M4.52539 2.82422C4.66239 2.41622 5.33663 2.41622 5.47363 2.82422L5.89551 4.08691L7.1582 4.50781C7.36215 4.57584 7.50098 4.76746 7.50098 4.98242C7.50077 5.19719 7.36297 5.38807 7.15918 5.45605L5.89648 5.87695L5.47461 7.13965C5.40561 7.34365 5.215 7.48242 5 7.48242C4.78501 7.48241 4.59339 7.34364 4.52539 7.13965L4.10449 5.87695L2.84082 5.45605C2.63705 5.38806 2.49923 5.19717 2.49902 4.98242C2.49902 4.76747 2.6369 4.57585 2.84082 4.50781L4.10449 4.08691L4.52539 2.82422Z" fill="var(--fill-0, #1A1A1A)" fill-opacity="0.6"/>
<path fill-rule="evenodd" clip-rule="evenodd" d="M11.25 0C12.7688 0 14 1.23122 14 2.75V11.25C14 12.7688 12.7688 14 11.25 14H2.75C2.61346 14 2.47984 13.986 2.34863 13.9668C2.32671 13.964 2.30486 13.9618 2.2832 13.957C0.987039 13.7351 0 12.6095 0 11.25V2.75C0 1.23122 1.23122 0 2.75 0H11.25ZM10.3828 8.11621C9.8948 7.62822 9.10336 7.62841 8.61523 8.11621L4.23242 12.5H11.25C11.9404 12.5 12.5 11.9404 12.5 11.25V10.2334L10.3828 8.11621ZM2.75 1.5C2.05964 1.5 1.5 2.05964 1.5 2.75V11.25C1.5 11.7532 1.79798 12.1856 2.22656 12.3838L7.55469 7.05566C8.6286 5.98208 10.3696 5.98189 11.4434 7.05566L12.5 8.1123V2.75C12.5 2.05964 11.9404 1.5 11.25 1.5H2.75Z" fill="var(--fill-0, #1A1A1A)" fill-opacity="0.6"/>
</g>
</svg>
