<svg preserveAspectRatio="none" width="100%" height="100%" overflow="visible" style="display: block;" viewBox="0 0 15.001 15.0009" fill="none" xmlns="http://www.w3.org/2000/svg">
<g id="Artwork">
<path d="M6.5 0.75C6.5 1.16421 6.16421 1.5 5.75 1.5C5.33579 1.5 5 1.16421 5 0.75C5 0.335786 5.33579 0 5.75 0C6.16421 0 6.5 0.335786 6.5 0.75Z" fill="var(--fill-0, #1A1A1A)" fill-opacity="0.6"/>
<path fill-rule="evenodd" clip-rule="evenodd" d="M13.153 1.84735C12.0234 0.718027 10.1917 0.717596 9.06262 1.84774L1.73569 9.17466C1.38475 9.5256 1.12609 10.0499 0.932507 10.5386C0.729856 11.0501 0.561017 11.6224 0.42678 12.1473C0.291854 12.6749 0.188114 13.1696 0.118185 13.5316C0.0831394 13.713 0.0563919 13.862 0.0382979 13.9664C0.0292471 14.0186 0.0222699 14.0602 0.0175723 14.0886C-0.0371591 14.3368 0.0375437 14.5981 0.219564 14.7802L0.220564 14.7812C0.402676 14.9634 0.664556 15.0381 0.912873 14.9834C0.941318 14.9787 0.982413 14.9718 1.03462 14.9627C1.139 14.9446 1.28804 14.9179 1.46943 14.8828C1.83138 14.8129 2.32613 14.7092 2.85372 14.5742C3.37862 14.44 3.95088 14.2712 4.46242 14.0685C4.95108 13.8749 5.47542 13.6163 5.82635 13.2653L13.1533 5.93832C14.2831 4.80861 14.2835 2.97649 13.153 1.84735ZM12.093 2.90864C12.6365 3.4515 12.637 4.33338 12.0927 4.87766L4.76569 12.2047C4.64313 12.3272 4.36246 12.4947 3.90996 12.674C3.48035 12.8441 2.9753 12.9949 2.48207 13.121C2.20576 13.1917 1.93781 13.2534 1.69526 13.3058C1.74757 13.0632 1.80935 12.7953 1.88001 12.5189C2.00615 12.0257 2.15687 11.5207 2.32706 11.0911C2.50632 10.6386 2.67378 10.3579 2.79635 10.2353L10.1237 2.90801C10.6665 2.3645 11.5487 2.36436 12.093 2.90864Z" fill="var(--fill-0, #1A1A1A)" fill-opacity="0.6"/>
<path d="M2.54704 2.17699L3.49304 2.49199C3.64604 2.54299 3.74904 2.68599 3.74904 2.84799C3.74904 3.00999 3.64504 3.15299 3.49204 3.20399L2.54604 3.51899L2.23004 4.46599C2.18004 4.61799 2.03604 4.72199 1.87504 4.72199C1.71404 4.72199 1.57104 4.61899 1.52004 4.46599L1.20404 3.51899L0.258038 3.20399C0.105038 3.15299 0.0010376 3.00999 0.0010376 2.84799C0.0010376 2.68599 0.105038 2.54299 0.258038 2.49199L1.20404 2.17699L1.52004 1.22999C1.62204 0.923988 2.12904 0.923988 2.23104 1.22999L2.54704 2.17699Z" fill="var(--fill-0, #1A1A1A)" fill-opacity="0.6"/>
<path d="M14.658 11.99L13.395 11.569L12.974 10.306C12.837 9.898 12.162 9.898 12.025 10.306L11.604 11.569L10.341 11.99C10.137 12.058 9.99902 12.249 9.99902 12.464C9.99902 12.679 10.137 12.87 10.341 12.938L11.604 13.359L12.025 14.622C12.093 14.826 12.285 14.964 12.5 14.964C12.715 14.964 12.906 14.826 12.975 14.622L13.396 13.359L14.659 12.938C14.863 12.87 15.001 12.679 15.001 12.464C15.001 12.249 14.862 12.058 14.658 11.99Z" fill="var(--fill-0, #1A1A1A)" fill-opacity="0.6"/>
</g>
</svg>
