<svg preserveAspectRatio="none" width="100%" height="100%" overflow="visible" style="display: block;" viewBox="0 0 40 40" fill="none" xmlns="http://www.w3.org/2000/svg">
<g id="meta-icon logo">
<path id="Union" fill-rule="evenodd" clip-rule="evenodd" d="M28.6674 6.5625C31.5983 6.56252 34.3901 8.26097 36.5266 11.4464C38.8284 14.8805 39.9643 19.1921 39.9992 23.6514L40 23.864C40 24.3694 39.9814 24.8497 39.9451 25.3069C39.933 25.4592 39.9188 25.6091 39.9028 25.7564C39.711 27.5241 39.2426 28.9318 38.5645 30.1054C37.882 31.2878 36.6935 32.4694 34.8405 32.9297C34.7664 32.9481 34.6913 32.9654 34.615 32.9814C34.1575 33.0778 33.6613 33.1308 33.1242 33.1308L32.9579 33.1297C31.245 33.1055 29.7118 32.6928 28.022 31.0986C26.6811 29.8356 25.1133 27.5919 23.9073 25.575L20.32 19.5824C20.2177 19.4115 20.1158 19.2433 20.0146 19.0775C19.9125 19.2582 19.8092 19.4409 19.705 19.6255L18.4448 21.8581C15.9132 26.3468 15.272 27.3693 14.0062 29.0565C11.7875 32.0111 9.89291 33.1308 7.39883 33.1308C4.44015 33.1308 2.56924 31.8497 1.41052 29.919C0.464639 28.3457 0 26.2815 0 23.9293C3.70818e-06 19.6519 1.17395 15.1937 3.40652 11.7509C4.33501 10.3197 5.45642 9.09028 6.72348 8.18787C6.89242 8.06754 7.06399 7.95309 7.23801 7.8447C7.76008 7.51949 8.30443 7.24924 8.8681 7.04208C8.96202 7.00757 9.05648 6.9748 9.15146 6.94382C9.91145 6.69593 10.7049 6.56251 11.5245 6.5625C13.4232 6.5625 15.3109 7.12444 17.282 8.73383C18.321 9.5818 19.3926 10.6943 20.5453 12.1536C21.482 10.8883 22.4922 9.69159 23.5791 8.74359C25.1871 7.34146 26.9217 6.5625 28.6674 6.5625ZM11.4551 10.9067C9.80167 10.9067 8.3897 12.0306 7.20032 13.7663C7.16193 13.8223 7.1238 13.879 7.08588 13.9363L7.00592 14.0585C5.33815 16.6454 4.32053 20.4387 4.32053 24.0837L4.32144 24.2259C4.34153 25.6839 4.66937 26.8059 5.09384 27.4931C5.66833 28.4223 6.52528 28.8159 7.39883 28.8159C8.52554 28.8159 9.55631 28.5363 11.5427 25.789C13.134 23.5871 15.0091 20.4963 16.2708 18.5587L17.9713 15.9456C17.141 14.763 16.4268 13.8629 15.9132 13.3173C14.8853 12.2253 13.5638 10.9067 11.4551 10.9067ZM28.4587 9.98581C26.3931 9.98583 24.7308 11.5438 22.8627 14.3216C22.745 14.4965 22.6269 14.6761 22.5082 14.8599C23.1739 15.8476 23.8699 16.9455 24.6028 18.1664L25.6308 19.8801C28.1124 24.0142 29.5242 26.1411 30.3505 27.144C31.4132 28.4321 32.1575 28.8159 33.1242 28.8159C33.2392 28.8159 33.3501 28.811 33.457 28.8013C33.5284 28.7948 33.598 28.7863 33.6659 28.7756C35.6685 28.4619 36.1887 26.361 36.1887 23.9836C36.1887 20.3086 35.3318 16.2301 33.4442 13.3159C32.1047 11.2488 30.3686 9.98581 28.4587 9.98581Z" fill="url(#paint0_linear_1998_79504)"/>
</g>
<defs>
<linearGradient id="paint0_linear_1998_79504" x1="625.956" y1="1940.07" x2="625.956" y2="924.632" gradientUnits="userSpaceOnUse">
<stop stop-color="#0082FB"/>
<stop offset="1" stop-color="#0064E0"/>
</linearGradient>
</defs>
</svg>
