<svg preserveAspectRatio="none" width="100%" height="100%" overflow="visible" style="display: block;" viewBox="0 0 20 20" fill="none" xmlns="http://www.w3.org/2000/svg">
<g id="Frame">
<path id="Union" d="M14.8027 7.20996C15.2124 7.14908 15.5943 7.43213 15.6553 7.8418L16.4199 12.9863V12.9873C16.5952 14.1717 15.8402 15.2799 14.7041 15.5684L14.4717 15.6152L9.05859 16.4199C8.089 16.5643 7.17924 16.0825 6.71973 15.29C6.51207 14.9317 6.63394 14.4724 6.99219 14.2646C7.35055 14.0571 7.80894 14.1798 8.0166 14.5381C8.18097 14.8215 8.50226 14.9855 8.83789 14.9355L14.251 14.1309C14.6666 14.0692 14.9632 13.7024 14.9443 13.29L14.9365 13.207L14.1719 8.0625C14.111 7.65294 14.3933 7.27106 14.8027 7.20996ZM11.3955 4C12.6733 4.00018 13.7087 5.03571 13.709 6.31348V11.3955C13.7088 12.6733 12.6733 13.7088 11.3955 13.709H6.31348C5.03571 13.7087 4.00018 12.6733 4 11.3955V6.31348C4.00024 5.03575 5.03575 4.00024 6.31348 4H11.3955ZM6.31348 5.5C5.86418 5.50024 5.50024 5.86418 5.5 6.31348V11.3955C5.50018 11.8449 5.86414 12.2087 6.31348 12.209H11.3955C11.8449 12.2088 12.2088 11.8449 12.209 11.3955V6.31348C12.2087 5.86414 11.8449 5.50018 11.3955 5.5H6.31348Z" fill="var(--fill-0, #1A1A1A)" fill-opacity="0.6"/>
</g>
</svg>
