<svg preserveAspectRatio="none" width="100%" height="100%" overflow="visible" style="display: block;" viewBox="0 0 16 16.0056" fill="none" xmlns="http://www.w3.org/2000/svg">
<g id="Artwork">
<path d="M7.00002 8C7.00002 8.551 7.44802 9 8.00002 9C8.55202 9 9.00002 8.551 9.00002 8C9.00002 7.449 8.55202 7 8.00002 7C7.44802 7 7.00002 7.449 7.00002 8Z" fill="black" fill-opacity="0.55"/>
<path d="M4.50002 9C3.94802 9 3.50002 8.551 3.50002 8C3.50002 7.449 3.94802 7 4.50002 7C5.05202 7 5.50002 7.449 5.50002 8C5.50002 8.551 5.05202 9 4.50002 9Z" fill="black" fill-opacity="0.55"/>
<path d="M10.5 8C10.5 8.551 10.948 9 11.5 9C12.052 9 12.5 8.551 12.5 8C12.5 7.449 12.052 7 11.5 7C10.948 7 10.5 7.449 10.5 8Z" fill="black" fill-opacity="0.55"/>
<path fill-rule="evenodd" clip-rule="evenodd" d="M8.00002 0C3.58181 0 2.15926e-05 3.58179 2.15926e-05 8C2.15926e-05 9.4506 0.392458 10.8068 1.06488 11.977C1.09295 12.0343 1.13116 12.1672 1.13177 12.3972C1.13238 12.6268 1.09518 12.9039 1.01741 13.1997C0.858242 13.8052 0.559322 14.3797 0.219404 14.72C0.0103058 14.9293 -0.0561883 15.242 0.0496425 15.5183C0.155473 15.7946 0.413849 15.9828 0.709282 15.9989C1.44913 16.0391 2.26319 15.8932 2.96902 15.6876C3.4872 15.5366 3.98601 15.3421 4.39182 15.1345C4.91986 15.4026 5.63844 15.6947 6.52247 15.8619C7.00127 15.9526 7.49599 16 8.00002 16C12.4182 16 16 12.4182 16 8C16 3.58179 12.4182 0 8.00002 0ZM1.50002 8C1.50002 4.41021 4.41024 1.5 8.00002 1.5C11.5898 1.5 14.5 4.41021 14.5 8C14.5 11.5898 11.5898 14.5 8.00002 14.5C7.59006 14.5 7.18877 14.4614 6.80157 14.3881C5.89292 14.2162 5.19791 13.8812 4.7577 13.6273C4.51394 13.4867 4.212 13.4944 3.97572 13.6472C3.68757 13.8336 3.16489 14.0682 2.54952 14.2474C2.43712 14.2802 2.32404 14.3103 2.21116 14.3376C2.31666 14.0863 2.40253 13.8306 2.46813 13.581C2.57236 13.1845 2.63279 12.7764 2.63177 12.3932C2.63078 12.0203 2.57147 11.614 2.38474 11.264C2.38079 11.2566 2.37671 11.2492 2.37251 11.2419C1.82022 10.2855 1.50002 9.18119 1.50002 8Z" fill="var(--fill-0, #1A1A1A)" fill-opacity="0.6"/>
</g>
</svg>
