<svg preserveAspectRatio="none" width="100%" height="100%" overflow="visible" style="display: block;" viewBox="0 0 12 12" fill="none" xmlns="http://www.w3.org/2000/svg">
<g id="Artwork">
<path fill-rule="evenodd" clip-rule="evenodd" d="M6.005 0.185421C6.22592 -0.00814987 6.54451 -0.0568949 6.81752 0.0711619L7.16323 0.233273C8.18245 0.711804 8.69093 1.86932 8.35368 2.94326L8.02164 3.99991H9.24725C11.0395 3.99996 12.3376 5.67962 11.9221 7.39253L11.8762 7.55855L11.1067 10.0586C10.7507 11.211 9.68525 12 8.4777 12H5.24913C3.72993 12 2.49914 10.7691 2.49907 9.24997V5.45989C2.49908 4.82852 2.71693 4.21695 3.1153 3.72647L5.91711 0.277219L6.005 0.185421ZM4.27938 4.6718C4.09787 4.89527 3.99911 5.17338 3.9991 5.45989V9.24997C3.99917 9.94071 4.55837 10.5 5.24913 10.5H8.4777C9.02578 10.5 9.51068 10.1421 9.67304 9.61716L10.4426 7.11714C10.6898 6.31394 10.089 5.49998 9.24725 5.49993H6.99818C6.584 5.49993 6.24824 5.16408 6.24817 4.74992C6.24817 4.67141 6.2629 4.59644 6.28528 4.52531L6.92299 2.49404C7.0149 2.20139 6.91601 1.89205 6.69154 1.70106L4.27938 4.6718Z" fill="var(--fill-0, #1A1A1A)" fill-opacity="0.6"/>
<path d="M0.750015 4.49992C1.16424 4.49992 1.50003 4.83571 1.50003 5.24993V10.75C1.49996 11.1641 1.1642 11.5 0.750015 11.5C0.335834 11.5 6.59653e-05 11.1641 0 10.75V5.24993C0 4.83571 0.335793 4.49992 0.750015 4.49992Z" fill="var(--fill-0, #1A1A1A)" fill-opacity="0.6"/>
</g>
</svg>
