<svg preserveAspectRatio="none" width="100%" height="100%" overflow="visible" style="display: block;" viewBox="0 0 13.4998 13.1513" fill="none" xmlns="http://www.w3.org/2000/svg">
<path id="Artwork" d="M9.06152 0.18719C9.84358 -0.31291 10.8711 0.247364 10.8711 1.17742V11.9733C10.871 12.9031 9.8435 13.4641 9.06152 12.9645L9.06055 12.9636L4.57715 10.0934H2.02832C0.908819 10.0934 0.000171728 9.18556 0 8.0661V5.08367C0.000251658 3.96428 0.908868 3.05633 2.02832 3.05633H4.57715L9.06055 0.18719H9.06152ZM5.20117 4.43817C5.08056 4.51534 4.94007 4.55629 4.79688 4.55633H2.02832C1.7373 4.55633 1.50025 4.79271 1.5 5.08367V8.0661C1.50017 8.35713 1.73725 8.59344 2.02832 8.59344H4.79688L4.90332 8.60125C5.00891 8.61642 5.11064 8.65463 5.20117 8.71258L9.37109 11.3815V1.76824L5.20117 4.43817ZM11.7207 4.84051C12.0136 4.54762 12.4884 4.54762 12.7812 4.84051C13.7393 5.79878 13.7394 7.35207 12.7812 8.31024C12.4884 8.60284 12.0135 8.60285 11.7207 8.31024C11.4279 8.01742 11.428 7.5426 11.7207 7.24969C12.0931 6.87731 12.0929 6.27354 11.7207 5.90106C11.4279 5.60825 11.4281 5.13342 11.7207 4.84051Z" fill="var(--fill-0, #1A1A1A)" fill-opacity="0.6"/>
</svg>
