<svg preserveAspectRatio="none" width="100%" height="100%" overflow="visible" style="display: block;" viewBox="0 0 13.6211 17.5" fill="none" xmlns="http://www.w3.org/2000/svg">
<g id="Group">
<path id="Vector (Stroke)" d="M0 7.29545C0 6.88124 0.335786 6.54545 0.75 6.54545C1.16421 6.54545 1.5 6.88124 1.5 7.29545C1.5 10.2228 3.88321 12.606 6.81055 12.606C9.73791 12.606 12.1211 10.2228 12.1211 7.29545C12.1211 6.88128 12.4569 6.54552 12.8711 6.54545C13.2853 6.54545 13.6211 6.88124 13.6211 7.29545C13.6211 11.0512 10.5663 14.106 6.81055 14.106C3.05478 14.106 0 11.0512 0 7.29545Z" fill="var(--fill-0, #1A1A1A)" fill-opacity="0.6"/>
<path id="Vector (Stroke)_2" d="M9.21197 3.90137C9.21189 2.57512 8.13693 1.5 6.8106 1.5C5.48434 1.50008 4.40931 2.57517 4.40923 3.90137V7.2959C4.40947 8.62196 5.48444 9.69719 6.8106 9.69727C8.13683 9.69727 9.21173 8.622 9.21197 7.2959V3.90137ZM10.712 7.2959C10.7117 9.4504 8.96529 11.1973 6.8106 11.1973C4.65598 11.1972 2.90947 9.45035 2.90923 7.2959V3.90137C2.90931 1.74678 4.65588 7.99063e-05 6.8106 0C8.96539 0 10.7119 1.74673 10.712 3.90137V7.2959Z" fill="var(--fill-0, #1A1A1A)" fill-opacity="0.6"/>
<path id="Vector (Stroke)_3" d="M6.06051 16.7495V13.356C6.06051 12.9418 6.3963 12.606 6.81051 12.606C7.22472 12.606 7.56051 12.9418 7.56051 13.356V16.7495C7.56051 17.1637 7.22472 17.4995 6.81051 17.4995C6.3963 17.4995 6.06051 17.1637 6.06051 16.7495Z" fill="var(--fill-0, #1A1A1A)" fill-opacity="0.6"/>
<path id="Vector (Stroke)_4" d="M9.96175 4.84858C10.376 4.84858 10.7118 5.18437 10.7118 5.59858C10.7118 6.01279 10.376 6.34858 9.96175 6.34858H7.53793C7.12371 6.34858 6.78793 6.01279 6.78793 5.59858C6.78793 5.18437 7.12371 4.84858 7.53793 4.84858H9.96175Z" fill="var(--fill-0, #1A1A1A)" fill-opacity="0.6"/>
<path id="Vector (Stroke)_5" d="M9.96197 15.9999C10.3762 15.9999 10.712 16.3357 10.712 16.7499C10.712 17.1641 10.3762 17.4999 9.96197 17.4999H3.65923C3.24502 17.4999 2.90923 17.1641 2.90923 16.7499C2.90923 16.3357 3.24502 15.9999 3.65923 15.9999H9.96197Z" fill="var(--fill-0, #1A1A1A)" fill-opacity="0.6"/>
</g>
</svg>
