<svg preserveAspectRatio="none" width="100%" height="100%" overflow="visible" style="display: block;" viewBox="0 0 11.9998 11.9999" fill="none" xmlns="http://www.w3.org/2000/svg">
<g id="Artwork">
<path fill-rule="evenodd" clip-rule="evenodd" d="M6.00488 0.185419C6.22579 -0.00814979 6.54438 -0.0568943 6.81738 0.0711611L7.16309 0.23327C8.18229 0.711797 8.69076 1.8693 8.35352 2.94323L8.02148 3.99987H9.24707C11.0393 3.99992 12.3374 5.67956 11.9219 7.39245L11.876 7.55847L11.1064 10.0585C10.7505 11.2109 9.68506 11.9999 8.47754 11.9999H5.24902C3.72985 11.9999 2.49909 10.769 2.49902 9.24987V5.45983C2.49903 4.82847 2.71688 4.2169 3.11523 3.72643L5.91699 0.277216L6.00488 0.185419ZM4.2793 4.67175C4.09779 4.89522 3.99903 5.17332 3.99902 5.45983V9.24987C3.99909 9.9406 4.55828 10.4999 5.24902 10.4999H8.47754C9.0256 10.4999 9.51049 10.142 9.67285 9.61706L10.4424 7.11706C10.6896 6.31388 10.0888 5.49992 9.24707 5.49987H6.99805C6.58388 5.49987 6.24812 5.16403 6.24805 4.74987C6.24805 4.67136 6.26278 4.59639 6.28516 4.52526L6.92285 2.49401C7.01477 2.20137 6.91588 1.89203 6.69141 1.70104L4.2793 4.67175Z" fill="var(--fill-0, #1A1A1A)" fill-opacity="0.6"/>
<path d="M0.75 4.49987C1.16421 4.49987 1.5 4.83566 1.5 5.24987V10.7499C1.49993 11.164 1.16417 11.4999 0.75 11.4999C0.335827 11.4999 6.5964e-05 11.164 0 10.7499V5.24987C0 4.83566 0.335786 4.49987 0.75 4.49987Z" fill="var(--fill-0, #1A1A1A)" fill-opacity="0.6"/>
</g>
</svg>
