<svg preserveAspectRatio="none" width="100%" height="100%" overflow="visible" style="display: block;" viewBox="0 0 14 16" fill="none" xmlns="http://www.w3.org/2000/svg">
<g id="Artwork">
<path fill-rule="evenodd" clip-rule="evenodd" d="M4 3H0.75C0.335786 3 0 3.33579 0 3.75C0 4.16421 0.335786 4.5 0.75 4.5H13.25C13.6642 4.5 14 4.16421 14 3.75C14 3.33579 13.6642 3 13.25 3H10V1.75C10 0.783786 9.21621 0 8.25 0H5.75C4.78379 0 4 0.783786 4 1.75V3ZM5.5 1.75C5.5 1.61221 5.61221 1.5 5.75 1.5H8.25C8.38779 1.5 8.5 1.61221 8.5 1.75V3H5.5V1.75Z" fill="var(--fill-0, #1A1A1A)" fill-opacity="0.6"/>
<path d="M2.48757 5.50106C2.90121 5.47928 3.25419 5.79695 3.27596 6.21059L3.64996 13.3155C3.68501 13.9796 4.23328 14.5 4.898 14.5H9.103C9.76698 14.5 10.316 13.9794 10.351 13.3155L10.725 6.21059C10.7468 5.79695 11.0998 5.47928 11.5134 5.50106C11.9271 5.52283 12.2447 5.8758 12.223 6.28944L11.849 13.3944C11.772 14.8546 10.565 16 9.103 16H4.898C3.43474 16 2.22902 14.8544 2.15204 13.3945L1.77803 6.28944C1.75626 5.8758 2.07393 5.52283 2.48757 5.50106Z" fill="var(--fill-0, #1A1A1A)" fill-opacity="0.6"/>
</g>
</svg>
