<svg preserveAspectRatio="none" width="100%" height="100%" overflow="visible" style="display: block;" viewBox="0 0 20 20" fill="none" xmlns="http://www.w3.org/2000/svg">
<g id="Frame">
<path id="Vector (Stroke)" d="M11.1396 5.90039C11.4325 5.60752 11.9073 5.60758 12.2002 5.90039L16.2803 9.97949C16.5732 10.2723 16.5731 10.7471 16.2803 11.04L12.2002 15.1211C11.9073 15.4138 11.4325 15.4139 11.1396 15.1211C10.8468 14.8282 10.8469 14.3535 11.1396 14.0605L13.9395 11.2598H5.66992C4.19495 11.2597 3 10.0648 3 8.58984V4.75C3 4.33579 3.33579 4 3.75 4C4.16421 4 4.5 4.33579 4.5 4.75V8.58984C4.5 9.2364 5.02337 9.75973 5.66992 9.75977H13.9395L11.1396 6.96094C10.8469 6.66806 10.8468 6.19326 11.1396 5.90039Z" fill="var(--fill-0, #1A1A1A)" fill-opacity="0.6"/>
</g>
</svg>
