<svg preserveAspectRatio="none" width="100%" height="100%" overflow="visible" style="display: block;" viewBox="0 0 12.8 12.8" fill="none" xmlns="http://www.w3.org/2000/svg">
<g id="Artwork">
<path d="M7 3C7 2.66863 6.73137 2.4 6.4 2.4C6.06863 2.4 5.8 2.66863 5.8 3V6.4C5.8 6.59689 5.8966 6.78125 6.05847 6.89332L8.65847 8.69332C8.93093 8.88194 9.3047 8.81398 9.49332 8.54153C9.68193 8.26908 9.61398 7.8953 9.34153 7.70668L7 6.08563V3Z" fill="var(--fill-0, #1A1A1A)" fill-opacity="0.6"/>
<path fill-rule="evenodd" clip-rule="evenodd" d="M6.4 0C2.86538 0 0 2.86538 0 6.4C0 9.93462 2.86538 12.8 6.4 12.8C9.93462 12.8 12.8 9.93462 12.8 6.4C12.8 2.86538 9.93462 0 6.4 0ZM1.2 6.4C1.2 3.52812 3.52812 1.2 6.4 1.2C9.27188 1.2 11.6 3.52812 11.6 6.4C11.6 9.27188 9.27188 11.6 6.4 11.6C3.52812 11.6 1.2 9.27188 1.2 6.4Z" fill="var(--fill-0, #1A1A1A)" fill-opacity="0.6"/>
</g>
</svg>
