<svg preserveAspectRatio="none" width="100%" height="100%" overflow="visible" style="display: block;" viewBox="0 0 14 16" fill="none" xmlns="http://www.w3.org/2000/svg">
<g id="Artwork">
<path d="M7 7C6.58579 7 6.25 7.33579 6.25 7.75V8.75H5.25C4.83579 8.75 4.5 9.08579 4.5 9.5C4.5 9.91421 4.83579 10.25 5.25 10.25H6.25V11.25C6.25 11.6642 6.58579 12 7 12C7.41421 12 7.75 11.6642 7.75 11.25V10.25H8.75C9.16421 10.25 9.5 9.91421 9.5 9.5C9.5 9.08579 9.16421 8.75 8.75 8.75H7.75V7.75C7.75 7.33579 7.41421 7 7 7Z" fill="var(--fill-0, #1A1A1A)" fill-opacity="0.6"/>
<path fill-rule="evenodd" clip-rule="evenodd" d="M0 2.75C0 1.23079 1.23079 0 2.75 0H8.336C8.79834 0 9.24493 0.182934 9.57396 0.513301L9.57474 0.514086L13.4873 4.42667C13.816 4.75536 14 5.20014 14 5.664V13.25C14 14.7692 12.7692 16 11.25 16H2.75C1.23079 16 0 14.7692 0 13.25V2.75ZM2.75 1.5C2.05921 1.5 1.5 2.05921 1.5 2.75V13.25C1.5 13.9408 2.05921 14.5 2.75 14.5H11.25C11.9408 14.5 12.5 13.9408 12.5 13.25V6.00005H9.75C8.78379 6.00005 8 5.21626 8 4.25005V1.5H2.75ZM9.5 2.56066L11.4394 4.50005H9.75C9.61221 4.50005 9.5 4.38784 9.5 4.25005V2.56066Z" fill="var(--fill-0, #1A1A1A)" fill-opacity="0.6"/>
</g>
</svg>
