<svg preserveAspectRatio="none" width="100%" height="100%" overflow="visible" style="display: block;" viewBox="0 0 16 18" fill="none" xmlns="http://www.w3.org/2000/svg">
<path id="Vector" d="M15.4325 8.54959C15.0361 7.86515 14.4704 7.2968 13.7911 6.90037C13.2725 6.59551 12.7362 6.40189 12.1307 6.31813V4.12511C12.4243 4.00204 12.6747 3.79269 12.8495 3.52414C13.0242 3.25558 13.1153 2.94018 13.1109 2.61871C13.112 2.40162 13.0706 2.18645 12.9892 1.98557C12.9078 1.78469 12.788 1.60206 12.6366 1.44817C12.4852 1.29428 12.3053 1.17216 12.1071 1.08884C11.9089 1.00551 11.6963 0.962616 11.4817 0.962618C11.047 0.962616 10.6299 1.13692 10.322 1.44734C10.0141 1.75776 9.84039 2.17898 9.83895 2.61871C9.83895 3.29158 10.1919 3.86558 10.7988 4.12511V6.30577C10.2961 6.37935 9.80836 6.53421 9.35426 6.76442L3.55028 2.31935C3.59101 2.16417 3.6263 2.00351 3.6263 1.8346C3.6263 0.821178 2.81443 0 1.81247 0C0.810522 0 0 0.821178 0 1.8346C0 2.84803 0.811879 3.66921 1.81383 3.66921C2.15596 3.66921 2.4723 3.56759 2.74518 3.40143L3.12533 3.69255L8.33195 7.48947C8.05634 7.74489 7.79975 8.03601 7.59474 8.36283C7.1793 9.02884 6.92541 9.76076 6.92541 10.56V10.7247C6.92725 11.2667 7.02377 11.8042 7.21052 12.3122C7.36801 12.7461 7.59881 13.1416 7.88528 13.4986L6.15562 15.2522C5.64378 15.06 5.0695 15.1877 4.68256 15.579C4.41918 15.8441 4.27119 16.2052 4.27255 16.5815C4.27391 16.9577 4.41918 17.3161 4.68392 17.5839C4.94866 17.8517 5.30301 18 5.67501 18C6.04701 18 6.40407 17.8517 6.6661 17.5839C6.92813 17.3161 7.07747 16.9577 7.07611 16.5815C7.07601 16.437 7.05403 16.2935 7.01095 16.1558L8.79762 14.3486C9.042 14.5203 9.30675 14.6645 9.59185 14.7881C10.1778 15.048 10.8106 15.1827 11.4505 15.1836H11.5727C12.3221 15.1836 13.0294 15.005 13.6933 14.6411C14.3758 14.271 14.9491 13.7247 15.3551 13.0578C15.7719 12.385 16 11.6393 16 10.8195V10.7783C16 9.97223 15.8154 9.22933 15.4298 8.54822L15.4325 8.54959ZM13.2507 12.3424C12.7661 12.8875 12.2081 13.224 11.5781 13.224H11.4586C11.0989 13.224 10.7459 13.1237 10.4024 12.9397C10.0257 12.7416 9.70663 12.4477 9.47645 12.087C9.22664 11.7299 9.09088 11.3399 9.09088 10.9266V10.803C9.09088 10.3966 9.16827 10.0107 9.36241 9.64678C9.57013 9.23482 9.85117 8.93958 10.2245 8.69378C10.5979 8.44797 10.9821 8.32987 11.4193 8.32987H11.46C11.8537 8.32987 12.2298 8.40815 12.5828 8.59078C12.9404 8.78101 13.2441 9.06033 13.4653 9.40235C13.6842 9.74533 13.8196 10.1359 13.8603 10.5421L13.8698 10.7989C13.8698 11.3578 13.658 11.8755 13.2358 12.3451L13.2507 12.3424Z" fill="var(--fill-0, #F8761F)"/>
</svg>
