<svg preserveAspectRatio="none" width="100%" height="100%" overflow="visible" style="display: block;" viewBox="0 0 24 24" fill="none" xmlns="http://www.w3.org/2000/svg">
<g id="quickbooks-2 logo" clip-path="url(#clip0_1996_72356)">
<path id="Vector" d="M12 24C18.6274 24 24 18.6274 24 12C24 5.37262 18.6274 0 12 0C5.37262 0 0 5.37262 0 12C0 18.6274 5.37262 24 12 24Z" fill="var(--fill-0, #2CA01C)"/>
<path id="Vector_2" d="M3.33337 12C3.33337 13.2377 3.82504 14.4247 4.70022 15.2998C5.57539 16.175 6.76238 16.6667 8.00006 16.6667H8.66663V14.9332H8.00006C7.61288 14.9363 7.22891 14.8628 6.8703 14.7167C6.5117 14.5707 6.18555 14.3551 5.91066 14.0824C5.63578 13.8097 5.41761 13.4853 5.26872 13.1279C5.11983 12.7705 5.04317 12.3871 5.04317 11.9999C5.04317 11.6127 5.11983 11.2293 5.26872 10.8719C5.41761 10.5145 5.63578 10.1901 5.91066 9.91738C6.18555 9.64468 6.5117 9.42911 6.8703 9.28308C7.22891 9.13705 7.61288 9.06347 8.00006 9.06656H9.6V18.1333C9.60015 18.593 9.7828 19.0338 10.1078 19.3588C10.4328 19.6839 10.8736 19.8666 11.3333 19.8668V7.33331H8.00006C7.38721 7.33329 6.78035 7.45398 6.21414 7.68849C5.64793 7.923 5.13346 8.26674 4.70009 8.70009C4.26673 9.13343 3.92297 9.64789 3.68844 10.2141C3.4539 10.7803 3.33337 11.3871 3.33337 12ZM15.9999 7.33331H15.3334V9.06675H15.9999C16.7721 9.07548 17.5097 9.38836 18.0527 9.93751C18.5957 10.4866 18.9002 11.2277 18.9002 12C18.9002 12.7723 18.5957 13.5134 18.0527 14.0625C17.5097 14.6116 16.7721 14.9245 15.9999 14.9332H14.4V5.86688C14.4 5.63925 14.3552 5.41384 14.2681 5.20353C14.181 4.99322 14.0534 4.80213 13.8924 4.64116C13.7315 4.48019 13.5404 4.35251 13.3301 4.26539C13.1198 4.17828 12.8944 4.13344 12.6667 4.13344V16.6669H15.9999C17.2376 16.6669 18.4246 16.1752 19.2998 15.3C20.175 14.4249 20.6666 13.2379 20.6666 12.0002C20.6666 10.7625 20.175 9.57552 19.2998 8.70034C18.4246 7.82517 17.2376 7.33331 15.9999 7.33331Z" fill="var(--fill-0, white)"/>
</g>
<defs>
<clipPath id="clip0_1996_72356">
<rect width="24" height="24" fill="white"/>
</clipPath>
</defs>
</svg>
