<svg preserveAspectRatio="none" width="100%" height="100%" overflow="visible" style="display: block;" viewBox="0 0 15.998 14.6919" fill="none" xmlns="http://www.w3.org/2000/svg">
<g id="Artwork">
<path fill-rule="evenodd" clip-rule="evenodd" d="M8 4.34676C9.65681 4.34676 11 5.6899 11 7.34676C10.9999 9.00357 9.6567 10.3468 8 10.3468C6.34325 10.3468 5.00014 9.00356 5 7.34676C5 5.6899 6.34315 4.34676 8 4.34676ZM8 5.84676C7.17157 5.84676 6.5 6.51833 6.5 7.34676C6.50014 8.1751 7.17164 8.84676 8 8.84676C8.82833 8.84676 9.49986 8.17509 9.5 7.34676C9.5 6.51834 8.82839 5.84676 8 5.84676Z" fill="var(--fill-0, #1A1A1A)" fill-opacity="0.6"/>
<path fill-rule="evenodd" clip-rule="evenodd" d="M4.1748 0.316484C5.04182 -0.184919 6.13062 -0.0827162 6.89062 0.567461L7.38574 0.991289C7.79565 0.951854 8.20634 0.951064 8.61328 0.990312L9.1084 0.568437C9.82123 -0.0413816 10.8219 -0.168974 11.6592 0.230547L11.8242 0.317461L12.1758 0.520586L12.1748 0.521562C13.0411 1.02168 13.4984 2.01413 13.3154 2.99715L13.1953 3.6407C13.3119 3.80085 13.428 3.9698 13.5332 4.15242C13.6378 4.33404 13.7271 4.51823 13.8076 4.6993L14.4248 4.91805C14.4308 4.92019 14.4364 4.92359 14.4424 4.92586C15.3752 5.26423 15.998 6.15081 15.998 7.14461V7.54891C15.998 8.54983 15.3659 9.44271 14.4219 9.77547L13.8076 9.99129C13.6383 10.3632 13.4331 10.7185 13.1943 11.0528L13.3145 11.6954C13.4975 12.6786 13.0412 13.6718 12.1738 14.1729L11.8232 14.3751C11.0104 14.8453 10.003 14.7854 9.25391 14.2403L9.10742 14.1251L8.61035 13.6993C8.20111 13.7386 7.79104 13.7386 7.38477 13.6993L6.89062 14.1241C6.13037 14.7744 5.04241 14.8761 4.1748 14.3751L3.82422 14.171C2.95754 13.6709 2.5005 12.6777 2.68359 11.6944L2.80371 11.0499C2.68773 10.89 2.57283 10.7212 2.46777 10.5401C2.36162 10.3571 2.271 10.1727 2.19043 9.99129L1.5752 9.77449C0.631398 9.44161 8.13829e-05 8.5487 0 7.54793V7.14363C0 6.14281 0.631418 5.25 1.5752 4.91707L2.18848 4.70027C2.35775 4.32876 2.5632 3.97297 2.80273 3.63777L2.68359 2.99715C2.50083 2.01523 2.95568 1.02127 3.82324 0.520586L4.1748 0.316484ZM5.91504 1.70711C5.63725 1.46963 5.24056 1.43321 4.92578 1.61531L4.57422 1.81844L4.57324 1.81941C4.25825 2.00103 4.09133 2.36258 4.1582 2.72176L4.33789 3.6866C4.37785 3.90113 4.32292 4.12272 4.18652 4.29305C3.8744 4.68236 3.62569 5.11313 3.44727 5.57039C3.36798 5.77347 3.20453 5.93226 2.99902 6.00496L2.07422 6.33113C1.73034 6.45237 1.5 6.77867 1.5 7.14363V7.54793C1.50008 7.91277 1.7305 8.23819 2.07422 8.35945L3.00391 8.68758L3.0791 8.71883C3.24914 8.80057 3.38271 8.94458 3.45215 9.12215C3.5452 9.36023 3.6457 9.5814 3.76562 9.78816C3.88699 9.99737 4.02882 10.1968 4.18848 10.3975C4.32383 10.5678 4.37884 10.7882 4.33887 11.002L4.1582 11.9698C4.09995 12.2835 4.22076 12.5999 4.46289 12.796L4.57422 12.8721L4.92578 13.0763C5.24192 13.2588 5.63743 13.2216 5.91504 12.9845L6.66016 12.3468L6.72461 12.297C6.8808 12.1901 7.07272 12.1459 7.26172 12.1749C7.74446 12.2491 8.24195 12.2497 8.7373 12.1749L8.81738 12.1671C9.00606 12.1591 9.19199 12.2226 9.33691 12.3468L10.083 12.9854L10.1924 13.0645C10.4587 13.228 10.7968 13.2365 11.0723 13.0772L11.4238 12.8741L11.5352 12.797C11.778 12.6004 11.8981 12.2845 11.8398 11.9708L11.6602 11.005C11.6202 10.7907 11.6754 10.5688 11.8115 10.3985C12.1238 10.0079 12.3721 9.57824 12.5488 9.12313L12.582 9.04891C12.6693 8.88055 12.8183 8.75031 12.999 8.6866L13.9238 8.36043C14.2675 8.23916 14.498 7.91373 14.498 7.54891V7.14461C14.498 6.77965 14.2677 6.45335 13.9238 6.33211C13.9211 6.33115 13.9187 6.3292 13.916 6.3282L12.9961 6.00398C12.7908 5.93139 12.6273 5.77317 12.5479 5.57039C12.4552 5.33327 12.3535 5.10992 12.2334 4.90144C12.1142 4.69456 11.9725 4.49623 11.8125 4.29598C11.6767 4.12597 11.6206 3.90544 11.6602 3.69148L11.8408 2.72273C11.8992 2.40904 11.7782 2.09269 11.5361 1.89656L11.4248 1.81941L11.0732 1.61629C10.7572 1.43426 10.3613 1.471 10.084 1.70809L9.33887 2.3448C9.17299 2.48659 8.95299 2.54974 8.7373 2.51668C8.25341 2.44237 7.75626 2.44177 7.25977 2.51668C7.04445 2.54913 6.82556 2.48641 6.66016 2.3448L5.91504 1.70711Z" fill="var(--fill-0, #1A1A1A)" fill-opacity="0.6"/>
</g>
</svg>
