<svg preserveAspectRatio="none" width="100%" height="100%" overflow="visible" style="display: block;" viewBox="0 0 17 17" fill="none" xmlns="http://www.w3.org/2000/svg">
<g id="Artwork">
<path d="M14.5 8C14.5 4.41021 11.5898 1.5 8 1.5C4.41021 1.5 1.5 4.41021 1.5 8C1.5 9.03374 1.74532 10.0086 2.17676 10.877L2.37207 11.2422L2.38477 11.2637C2.57149 11.6137 2.63085 12.0206 2.63184 12.3936C2.63281 12.7767 2.57197 13.1847 2.46777 13.5811C2.40221 13.8305 2.31343 14.0847 2.20801 14.3359C2.32174 14.3085 2.43655 14.2801 2.5498 14.2471C3.16487 14.0679 3.68745 13.8338 3.97559 13.6475L4.06738 13.5967C4.28673 13.4949 4.5446 13.504 4.75781 13.627C5.19802 13.8808 5.8931 14.2158 6.80176 14.3877C7.18892 14.461 7.59008 14.5 8 14.5H8.01367C8.42781 14.5001 8.76367 14.8358 8.76367 15.25C8.76367 15.6642 8.42781 15.9999 8.01367 16H8C7.6221 16 7.24941 15.9734 6.88477 15.9219L6.52246 15.8623C5.63836 15.6951 4.92065 15.4009 4.39258 15.1328C3.98654 15.3406 3.48748 15.5364 2.96875 15.6875C2.26297 15.8931 1.44876 16.0393 0.708984 15.999C0.413774 15.9829 0.155678 15.7946 0.0498047 15.5186C-0.0560261 15.2423 0.0106288 14.9291 0.219727 14.7197C0.559526 14.3794 0.858452 13.8046 1.01758 13.1992C1.09522 12.9037 1.13241 12.6269 1.13184 12.3975C1.13121 12.1624 1.09071 12.0288 1.0625 11.9736C0.391333 10.8043 0 9.44912 0 8C0 3.58179 3.58179 0 8 0C12.4182 0 16 3.58179 16 8C16 8.41421 15.6642 8.75 15.25 8.75C14.8358 8.75 14.5 8.41421 14.5 8Z" fill="var(--fill-0, #1A1A1A)" fill-opacity="0.6"/>
<path d="M16.4873 12.5381L14.5928 11.9072L13.9615 10.0127C13.8594 9.707 13.5728 9.5 13.2501 9.5C12.9274 9.5 12.6407 9.707 12.5387 10.0127L11.9074 11.9072L10.0129 12.5381C9.7067 12.6406 9.5002 12.9268 9.5002 13.25C9.5002 13.5732 9.7067 13.8594 10.0129 13.9619L11.9074 14.5928L12.5387 16.4873C12.6408 16.793 12.9274 17 13.2501 17C13.5728 17 13.8595 16.793 13.9615 16.4873L14.5928 14.5928L16.4873 13.9619C16.7935 13.8594 17 13.5732 17 13.25C17 12.9268 16.7935 12.6406 16.4873 12.5381Z" fill="var(--fill-0, #1A1A1A)" fill-opacity="0.6"/>
</g>
</svg>
