<svg preserveAspectRatio="none" width="100%" height="100%" overflow="visible" style="display: block;" viewBox="0 0 15.002 16" fill="none" xmlns="http://www.w3.org/2000/svg">
<g id="Artwork">
<path d="M0.75 0C1.16421 0 1.5 0.335786 1.5 0.75V15.25C1.5 15.6642 1.16421 16 0.75 16C0.335786 16 0 15.6642 0 15.25V0.75C0 0.335786 0.335786 0 0.75 0Z" fill="var(--fill-0, #1A1A1A)" fill-opacity="0.6"/>
<path fill-rule="evenodd" clip-rule="evenodd" d="M6.25 11.5C7.21666 11.5 8 12.2839 8 13.25V13.75C8 14.7161 7.21666 15.5 6.25 15.5H4.75C3.78334 15.5 3 14.7161 3 13.75V13.25C3 12.2839 3.78334 11.5 4.75 11.5H6.25ZM4.75 13C4.61206 13 4.5 13.1121 4.5 13.25V13.75C4.5 13.8879 4.61206 14 4.75 14H6.25C6.38794 14 6.5 13.8879 6.5 13.75V13.25C6.5 13.1121 6.38794 13 6.25 13H4.75Z" fill="var(--fill-0, #1A1A1A)" fill-opacity="0.6"/>
<path fill-rule="evenodd" clip-rule="evenodd" d="M12.25 6C13.2167 6 14 6.78393 14 7.75V8.25C14 9.21607 13.2167 10 12.25 10H4.75C3.78334 10 3 9.21607 3 8.25V7.75C3 6.78393 3.78334 6 4.75 6H12.25ZM4.75 7.5C4.61206 7.5 4.5 7.61207 4.5 7.75V8.25C4.5 8.38793 4.61206 8.5 4.75 8.5H12.25C12.3879 8.5 12.5 8.38793 12.5 8.25V7.75C12.5 7.61207 12.3879 7.5 12.25 7.5H4.75Z" fill="var(--fill-0, #1A1A1A)" fill-opacity="0.6"/>
<path d="M12.0264 0.305664C12.1636 -0.101783 12.8373 -0.101778 12.9746 0.305664L13.3965 1.56934L14.6592 1.99023C14.863 2.05828 15.0019 2.249 15.002 2.46387C15.002 2.67887 14.8642 2.87048 14.6602 2.93848L13.3975 3.35938L12.9756 4.62207C12.9065 4.82597 12.7159 4.96387 12.501 4.96387C12.286 4.96386 12.0944 4.82597 12.0264 4.62207L11.6055 3.35938L10.3418 2.93848C10.1378 2.87046 10 2.67885 10 2.46387C10.0001 2.24901 10.138 2.05829 10.3418 1.99023L11.6055 1.56934L12.0264 0.305664Z" fill="var(--fill-0, #1A1A1A)" fill-opacity="0.6"/>
<path fill-rule="evenodd" clip-rule="evenodd" d="M7 0.5C7.96666 0.5 8.75 1.28393 8.75 2.25V2.75C8.75 3.71607 7.96666 4.5 7 4.5H4.75C3.78334 4.5 3 3.71607 3 2.75V2.25C3 1.28393 3.78334 0.5 4.75 0.5H7ZM4.75 2C4.61206 2 4.5 2.11207 4.5 2.25V2.75C4.5 2.88793 4.61206 3 4.75 3H7C7.13794 3 7.25 2.88793 7.25 2.75V2.25C7.25 2.12944 7.16445 2.02836 7.05078 2.00488L7 2H4.75Z" fill="var(--fill-0, #1A1A1A)" fill-opacity="0.6"/>
</g>
</svg>
