<svg preserveAspectRatio="none" width="100%" height="100%" overflow="visible" style="display: block;" viewBox="0 0 55 6" fill="none" xmlns="http://www.w3.org/2000/svg">
<g id="Frame 14842">
<circle id="Ellipse 50" cx="3" cy="3" r="3" fill="var(--fill-0, #6366F1)"/>
<g id="Union">
<path d="M13.4375 2.5C13.7136 2.5 13.9375 2.72386 13.9375 3C13.9375 3.27614 13.7136 3.5 13.4375 3.5H10.5C10.224 3.49982 10 3.27603 10 3C10 2.72397 10.224 2.50018 10.5 2.5H13.4375Z" fill="var(--fill-0, #6366F1)"/>
<path d="M21.2715 2.5C21.5475 2.50018 21.7715 2.72397 21.7715 3C21.7715 3.27603 21.5475 3.49982 21.2715 3.5H18.334C18.0578 3.5 17.834 3.27614 17.834 3C17.834 2.72386 18.0578 2.5 18.334 2.5H21.2715Z" fill="var(--fill-0, #6366F1)"/>
<path d="M29.1045 2.5C29.3806 2.5 29.6045 2.72386 29.6045 3C29.6045 3.27614 29.3806 3.5 29.1045 3.5H26.167C25.8908 3.5 25.667 3.27614 25.667 3C25.667 2.72386 25.8908 2.5 26.167 2.5H29.1045Z" fill="var(--fill-0, #6366F1)"/>
<path d="M36.9375 2.5C37.2136 2.5 37.4375 2.72386 37.4375 3C37.4375 3.27614 37.2136 3.5 36.9375 3.5H34C33.724 3.49982 33.5 3.27603 33.5 3C33.5 2.72397 33.724 2.50018 34 2.5H36.9375Z" fill="var(--fill-0, #6366F1)"/>
<path d="M44.7715 2.5C45.0475 2.50018 45.2715 2.72397 45.2715 3C45.2715 3.27603 45.0475 3.49982 44.7715 3.5H41.834C41.5578 3.5 41.334 3.27614 41.334 3C41.334 2.72386 41.5578 2.5 41.834 2.5H44.7715Z" fill="var(--fill-0, #6366F1)"/>
</g>
<circle id="Ellipse 51" cx="52" cy="3" r="3" fill="var(--fill-0, #6366F1)"/>
</g>
</svg>
