<svg preserveAspectRatio="none" width="100%" height="100%" overflow="visible" style="display: block;" viewBox="0 0 16 14" fill="none" xmlns="http://www.w3.org/2000/svg">
<path id="Artwork" fill-rule="evenodd" clip-rule="evenodd" d="M13.25 0C14.7688 0 16 1.23122 16 2.75V11.25C16 12.7688 14.7688 14 13.25 14H2.75C1.23122 14 0 12.7688 0 11.25V2.75C0 1.23122 1.23122 0 2.75 0H13.25ZM14.5 11.25C14.5 11.9404 13.9404 12.5 13.25 12.5H6V1.5H13.25C13.9404 1.5 14.5 2.05964 14.5 2.75V11.25ZM4.5 12.5H2.75C2.05964 12.5 1.5 11.9404 1.5 11.25V2.75C1.5 2.05964 2.05964 1.5 2.75 1.5H4.5V12.5Z" fill="var(--fill-0, #1A1A1A)" fill-opacity="0.6"/>
</svg>
