<svg preserveAspectRatio="none" width="100%" height="100%" overflow="visible" style="display: block;" viewBox="0 0 20 18" fill="none" xmlns="http://www.w3.org/2000/svg">
<g id="Group">
<path id="Vector" d="M0.460332 13.0504L7.10536 1.63975C7.94945 2.13819 12.2058 4.5009 12.8932 4.95019L6.24816 16.3616C5.5214 17.3245 -0.460365 14.5118 0.460332 13.0497V13.0504Z" fill="var(--fill-0, #FBBC04)"/>
<path id="Vector_2" d="M19.5527 13.0494L12.9076 1.63943C11.9787 0.0887509 9.97784 -0.474756 8.33453 0.441116C6.69122 1.35699 6.19084 3.32996 7.11982 4.94987L13.7648 16.3612C14.6938 17.9112 16.6946 18.4747 18.338 17.5589C19.9095 16.643 20.4817 14.6001 19.5527 13.0508V13.0494Z" fill="var(--fill-0, #4285F4)"/>
<path id="Vector_3" d="M3.33563 17.9998C5.17784 17.9998 6.67125 16.539 6.67125 14.7371C6.67125 12.9352 5.17784 11.4744 3.33563 11.4744C1.49341 11.4744 0 12.9352 0 14.7371C0 16.539 1.49341 17.9998 3.33563 17.9998Z" fill="var(--fill-0, #34A853)"/>
</g>
</svg>
