<svg preserveAspectRatio="none" width="100%" height="100%" overflow="visible" style="display: block;" viewBox="0 0 16.001 16" fill="none" xmlns="http://www.w3.org/2000/svg">
<g id="Artwork">
<path d="M3.396 1.569L4.659 1.99C4.863 2.058 5.002 2.249 5.002 2.464C5.002 2.679 4.864 2.87 4.66 2.938L3.397 3.359L2.976 4.622C2.907 4.826 2.716 4.964 2.501 4.964C2.286 4.964 2.094 4.826 2.026 4.622L1.605 3.359L0.342 2.938C0.138 2.87 0 2.679 0 2.464C0 2.249 0.138 2.058 0.342 1.99L1.605 1.569L2.026 0.306C2.163 -0.102 2.838 -0.102 2.975 0.306L3.396 1.569Z" fill="var(--fill-0, #1A1A1A)" fill-opacity="0.6"/>
<path fill-rule="evenodd" clip-rule="evenodd" d="M9.19846 1.47429C9.08532 1.18808 8.80881 1.00003 8.50104 1C8.19328 0.999972 7.91673 1.18797 7.80354 1.47417L6.01003 6.00905L1.47515 7.80256C1.18897 7.91574 1.00098 8.19226 1.00098 8.5C1.00098 8.80774 1.18897 9.08426 1.47515 9.19744L6.01003 10.991L7.80354 15.5258C7.91673 15.812 8.19328 16 8.50104 16C8.80881 16 9.08532 15.8119 9.19846 15.5257L10.991 10.9909L15.5268 9.19746C15.813 9.08429 16.001 8.80776 16.001 8.5C16.001 8.19224 15.813 7.91571 15.5268 7.80254L10.991 6.00905L9.19846 1.47429ZM7.28541 6.86283L8.50079 3.78975L9.71549 6.86271C9.79171 7.05554 9.94437 7.20821 10.1372 7.28446L13.2113 8.5L10.1372 9.71554C9.94437 9.79179 9.79171 9.94446 9.71549 10.1373L8.50079 13.2102L7.28541 10.1372C7.20918 9.94441 7.05657 9.7918 6.86381 9.71556L3.79027 8.5L6.86381 7.28444C7.05657 7.2082 7.20918 7.05559 7.28541 6.86283Z" fill="var(--fill-0, #1A1A1A)" fill-opacity="0.6"/>
</g>
</svg>
