<svg preserveAspectRatio="none" width="100%" height="100%" overflow="visible" style="display: block;" viewBox="0 0 9.0005 9.00173" fill="none" xmlns="http://www.w3.org/2000/svg">
<path id="Artwork" d="M7.71975 8.78075C7.86575 8.92775 8.05775 9.00075 8.24975 9.00075H8.25075C8.44275 9.00075 8.63475 8.92675 8.78075 8.78075C9.07375 8.48775 9.07375 8.01275 8.78075 7.71975L5.56174 4.50074L8.78075 1.28173C9.07375 0.988726 9.07375 0.513727 8.78075 0.220727C8.48775 -0.0722734 8.01275 -0.0722734 7.71975 0.220727L4.50052 3.43952L1.28075 0.21975C0.98775 -0.07325 0.51275 -0.07325 0.21975 0.21975C-0.07325 0.51275 -0.07325 0.98775 0.21975 1.28075L3.43945 4.50045L0.21975 7.71973C-0.07325 8.01273 -0.07325 8.48773 0.21975 8.78073C0.36575 8.92773 0.55775 9.00073 0.74975 9.00073L0.75075 9.00173C0.94275 9.00173 1.13475 8.92773 1.28075 8.78173L4.50074 5.56174L7.71975 8.78075Z" fill="var(--fill-0, #1A1A1A)" fill-opacity="0.6"/>
</svg>
