<svg preserveAspectRatio="none" width="100%" height="100%" overflow="visible" style="display: block;" viewBox="0 0 17 12" fill="none" xmlns="http://www.w3.org/2000/svg">
<g id="Artwork">
<path d="M4.5 3.75C4.5 4.16421 4.16421 4.5 3.75 4.5C3.33579 4.5 3 4.16421 3 3.75C3 3.33579 3.33579 3 3.75 3C4.16421 3 4.5 3.33579 4.5 3.75Z" fill="var(--fill-0, #1A1A1A)" fill-opacity="0.6"/>
<path fill-rule="evenodd" clip-rule="evenodd" d="M12 9.25V8.26945L15.1478 10.0004C15.9799 10.4577 17 9.85627 17 8.90512V3.09612C17 2.14498 15.9798 1.54364 15.1476 2.00093L12 3.73179V2.75C12 1.23122 10.7688 0 9.25 0H2.75C1.23122 0 0 1.23122 0 2.75V9.25C0 10.7688 1.23122 12 2.75 12H9.25C10.7688 12 12 10.7688 12 9.25ZM2.75 1.5C2.05964 1.5 1.5 2.05964 1.5 2.75V9.25C1.5 9.94036 2.05964 10.5 2.75 10.5H9.25C9.94036 10.5 10.5 9.94036 10.5 9.25V7.01398C10.4998 7.00497 10.4998 6.99595 10.5 6.98692V5.01433C10.4998 5.0053 10.4998 4.99627 10.5 4.98726V2.75C10.5 2.05964 9.94036 1.5 9.25 1.5H2.75ZM15.5 8.48226L12 6.55762V5.44363L15.5 3.51899V8.48226Z" fill="var(--fill-0, #1A1A1A)" fill-opacity="0.6"/>
</g>
</svg>
