<svg preserveAspectRatio="none" width="100%" height="100%" overflow="visible" style="display: block;" viewBox="0 0 14 13.9999" fill="none" xmlns="http://www.w3.org/2000/svg">
<path id="Artwork" fill-rule="evenodd" clip-rule="evenodd" d="M9.25106 10.3116C8.28145 11.0569 7.06747 11.5 5.75 11.5C2.57436 11.5 0 8.92564 0 5.75C0 2.57436 2.57436 0 5.75 0C8.92564 0 11.5 2.57436 11.5 5.75C11.5 7.06742 11.0569 8.28137 10.3117 9.25095L13.7803 12.7196C14.0732 13.0125 14.0732 13.4873 13.7803 13.7802C13.4874 14.0731 13.0126 14.0731 12.7197 13.7802L9.25106 10.3116ZM1.5 5.75C1.5 3.40279 3.40279 1.5 5.75 1.5C8.09721 1.5 10 3.40279 10 5.75C10 6.9119 9.53374 7.96491 8.77812 8.73211C8.77018 8.7394 8.76237 8.74689 8.75467 8.75458C8.74698 8.76228 8.73948 8.7701 8.73219 8.77804C7.96498 9.53371 6.91194 10 5.75 10C3.40279 10 1.5 8.09721 1.5 5.75Z" fill="var(--fill-0, #1A1A1A)" fill-opacity="0.48"/>
</svg>
