<svg preserveAspectRatio="none" width="100%" height="100%" overflow="visible" style="display: block;" viewBox="0 0 12 11.9995" fill="none" xmlns="http://www.w3.org/2000/svg">
<g id="Group">
<path id="Vector" d="M11.526 5.8025L8.424 4.5755L7.197 1.4735C7.084 1.1875 6.807 0.9995 6.5 0.9995C6.193 0.9995 5.916 1.1875 5.803 1.4735L4.576 4.5755L1.474 5.8025C1.188 5.9155 1 6.1925 1 6.4995C1 6.8065 1.188 7.0835 1.474 7.1965L4.576 8.4235L5.803 11.5255C5.916 11.8115 6.193 11.9995 6.5 11.9995C6.807 11.9995 7.084 11.8115 7.197 11.5255L8.424 8.4235L11.526 7.1965C11.812 7.0835 12 6.8065 12 6.4995C12 6.1925 11.812 5.9155 11.526 5.8025Z" fill="var(--fill-0, #008BA7)"/>
<path id="Vector_2" d="M3.492 1.4915L2.546 1.1765L2.23 0.2295C2.128 -0.0765 1.621 -0.0765 1.519 0.2295L1.203 1.1765L0.257 1.4915C0.104 1.5425 0 1.6855 0 1.8475C0 2.0095 0.104 2.1525 0.257 2.2035L1.203 2.5185L1.519 3.4655C1.57 3.6185 1.713 3.7215 1.874 3.7215C2.035 3.7215 2.179 3.6175 2.229 3.4655L2.545 2.5185L3.491 2.2035C3.644 2.1525 3.748 2.0095 3.748 1.8475C3.748 1.6855 3.644 1.5425 3.491 1.4915H3.492Z" fill="var(--fill-0, #008BA7)"/>
</g>
</svg>
