<svg preserveAspectRatio="none" width="100%" height="100%" overflow="visible" style="display: block;" viewBox="0 0 9.507 20.2839" fill="none" xmlns="http://www.w3.org/2000/svg">
<path id="Vector" fill-rule="evenodd" clip-rule="evenodd" d="M2.40583 2.29978C0.970968 3.73509 0.0696555 4.62029 0.043029 4.62029C0.00805723 4.62029 0 4.63743 0 4.71172V4.80315H1.50937C2.86035 4.80315 3.02469 4.80703 3.07509 4.84006L3.13143 4.87698V12.5298V20.1827L3.19166 20.2301C3.2652 20.288 6.17475 20.3062 6.29903 20.2496L6.36017 20.2217L6.35194 12.5867C6.34743 8.38749 6.35115 4.93114 6.36017 4.90594C6.4016 4.79069 6.37131 4.79269 7.96202 4.79932C9.01599 4.80366 9.45272 4.79818 9.47432 4.78029C9.53717 4.72806 9.79082 4.99292 6.74497 1.92983C5.69955 0.878519 4.82508 0.0170315 4.78971 0.0035465C4.72657 -0.0204535 4.69251 0.0123437 2.40583 2.29978Z" fill="var(--fill-0, #D5B718)"/>
</svg>
