<svg preserveAspectRatio="none" width="100%" height="100%" overflow="visible" style="display: block;" viewBox="0 0 9.44666 20.2725" fill="none" xmlns="http://www.w3.org/2000/svg">
<path id="Vector" fill-rule="evenodd" clip-rule="evenodd" d="M4.63708 0.0225456C4.59148 0.0490656 3.99628 0.647296 2.9183 1.75021C2.52853 2.14889 2.13883 2.54243 2.0522 2.62472C1.92103 2.74935 1.17658 3.4994 0.304253 4.38575C0.0434035 4.65083 -0.027921 4.74295 0.00912897 4.7669C0.025104 4.77729 0.704304 4.78929 1.5182 4.79369L2.99818 4.80158L3.06673 4.86563L3.1352 4.92964L3.13528 12.5448C3.13528 17.6514 3.14293 20.1743 3.15853 20.2033C3.1712 20.2271 3.215 20.2528 3.25573 20.2602C3.4127 20.2892 6.20683 20.2617 6.26113 20.2307L6.31258 20.2013L6.3131 12.5621C6.31355 5.06426 6.31438 4.92181 6.35743 4.86575L6.40138 4.8086L7.91008 4.79718C9.04708 4.78855 9.42568 4.77895 9.44653 4.75809C9.47465 4.72992 4.8587 0.0835206 4.7426 0.0231756C4.6835 -0.00761941 4.68883 -0.00761937 4.63708 0.0225456Z" fill="var(--fill-0, #34C734)"/>
</svg>
