<svg preserveAspectRatio="none" width="100%" height="100%" overflow="visible" style="display: block;" viewBox="0 0 9.65842 12.8895" fill="none" xmlns="http://www.w3.org/2000/svg">
<path id="Vector" fill-rule="evenodd" clip-rule="evenodd" d="M4.81625 0.0174643C4.76382 0.0344893 4.70712 0.0896899 2.97597 1.80854C2.27067 2.50896 1.32132 3.45074 0.866296 3.90149C-0.0638988 4.82309 -0.0313262 4.78807 0.0223288 4.80869C0.0434188 4.81672 0.744872 4.82256 1.58127 4.82159C2.93202 4.82001 3.10767 4.82384 3.15335 4.85594L3.2048 4.89201V8.83251C3.2048 11.7742 3.21155 12.7878 3.23127 12.8312L3.25782 12.8895H4.8308H6.40377L6.44232 12.8305C6.47832 12.7756 6.4799 12.5105 6.46557 8.90249C6.45717 6.77451 6.45687 5.00054 6.4649 4.96041C6.49385 4.81581 6.44952 4.81949 8.11925 4.82151C8.94905 4.82256 9.63837 4.81694 9.65105 4.80914C9.70332 4.77681 9.51762 4.58362 7.77747 2.86004C5.7065 0.808865 5.87112 0.972814 5.3771 0.469264C5.04477 0.130489 4.8959 -0.00721041 4.8698 0.000289593C4.86545 0.00156459 4.84137 0.00928931 4.81625 0.0174643Z" fill="var(--fill-0, #1988E9)"/>
</svg>
