<svg preserveAspectRatio="none" width="100%" height="100%" overflow="visible" style="display: block;" viewBox="0 0 126.067 16" fill="none" xmlns="http://www.w3.org/2000/svg">
<g id="Group">
<path id="Vector" d="M99.1182 4.4382C100.107 4.4382 100.948 4.82363 101.643 5.59449C102.358 6.36535 102.716 7.30288 102.716 8.40708C102.716 9.53212 102.358 10.4801 101.643 11.2509C100.948 12.0218 100.107 12.4072 99.1182 12.4072H99.0866C98.5397 12.4072 98.0347 12.2926 97.5719 12.0635C97.1091 11.8343 96.762 11.5218 96.5306 11.1259H96.4675L96.5306 12.1572V15.4698H95.1105V4.65695H96.4675V5.71949H96.5306C96.762 5.32364 97.1091 5.01113 97.5719 4.78196C98.0347 4.55278 98.5502 4.4382 99.1182 4.4382ZM91.0713 4.40695C91.7445 4.40695 92.3546 4.57362 92.9016 4.90696C93.4486 5.24031 93.8272 5.65699 94.0376 6.15701L92.7754 6.68827C92.6329 6.36986 92.3891 6.10643 92.0811 5.93825C91.7412 5.76124 91.3605 5.67507 90.9767 5.68824C90.6227 5.67304 90.2719 5.75988 89.9669 5.93825C89.6723 6.12575 89.5251 6.35493 89.5251 6.62577C89.5251 7.06329 89.9353 7.36538 90.7558 7.53205L91.8918 7.84456C93.4065 8.19874 94.1638 8.94877 94.1638 10.0946C94.1638 10.7405 93.8798 11.2926 93.3118 11.7509C92.7438 12.2093 92.0075 12.4281 91.1029 12.4072C90.3455 12.4072 89.6829 12.2093 89.1149 11.8134C88.5555 11.4404 88.1258 10.9057 87.8842 10.2821L89.1464 9.75088C89.3357 10.1884 89.5987 10.5322 89.9353 10.7822C90.2738 11.028 90.6832 11.1594 91.1029 11.1572C91.5657 11.1572 91.9444 11.0634 92.2389 10.8759C92.5334 10.6884 92.6912 10.4592 92.7123 10.1884C92.7123 9.70921 92.3441 9.35503 91.6078 9.12586L90.2824 8.81335C88.8098 8.43833 88.0735 7.72998 88.0735 6.68827C88.0735 6.00075 88.3575 5.44865 88.9255 5.03197C89.4935 4.61529 90.2088 4.40695 91.0713 4.40695ZM71.0962 4.4382C72.2323 4.4382 73.1579 4.81321 73.8732 5.56324C74.6095 6.31326 74.9777 7.26121 74.9777 8.40708C74.9777 9.57379 74.6095 10.5322 73.8732 11.2822C73.1369 12.0322 72.2112 12.4072 71.0962 12.4072C69.9812 12.4072 69.0451 12.0322 68.2877 11.2822C67.5514 10.5322 67.1833 9.57379 67.1833 8.40708C67.1833 7.26121 67.5514 6.31326 68.2877 5.56324C69.024 4.81321 69.9602 4.4382 71.0962 4.4382ZM122.375 4.4382C123.511 4.4382 124.405 4.79238 125.057 5.50073C125.71 6.20909 126.046 7.21954 126.067 8.53209V8.68834H120.103C120.124 9.41753 120.366 10.0113 120.829 10.4697C121.292 10.928 121.86 11.1468 122.533 11.1259C123.438 11.1259 124.153 10.678 124.679 9.78213L125.941 10.4071C125.613 11.0169 125.122 11.5252 124.521 11.8759C123.932 12.2301 123.248 12.4072 122.47 12.4072C121.355 12.4072 120.44 12.0322 119.724 11.2822C119.009 10.5322 118.652 9.57379 118.652 8.40708C118.652 7.28204 118.999 6.3341 119.693 5.56324C120.387 4.79238 121.281 4.41736 122.375 4.4382ZM114.833 4.4382C115.612 4.4382 116.285 4.6257 116.853 5.00072C117.421 5.37573 117.852 5.907 118.147 6.59452L116.853 7.12579C116.453 6.18826 115.748 5.71949 114.739 5.71949C114.086 5.71949 113.518 5.97992 113.034 6.50077C112.572 7.02162 112.34 7.65706 112.34 8.40708C112.34 9.15711 112.572 9.80296 113.034 10.3446C113.518 10.8655 114.086 11.1259 114.739 11.1259C115.769 11.1259 116.495 10.6572 116.916 9.71963L118.21 10.2509C117.915 10.9384 117.473 11.4697 116.884 11.8447C116.295 12.2197 115.612 12.4072 114.833 12.4072C113.697 12.4072 112.761 12.0322 112.025 11.2822C111.288 10.5113 110.92 9.55295 110.92 8.40708C110.92 7.26121 111.288 6.31326 112.025 5.56324C112.761 4.81321 113.697 4.4382 114.833 4.4382ZM106.597 4.4382C107.649 4.4382 108.48 4.70904 109.09 5.25073C109.7 5.79241 110.005 6.55285 110.005 7.53205V12.1572H108.648V11.1259H108.585C107.996 11.9801 107.207 12.4072 106.218 12.4072C105.398 12.4072 104.704 12.1676 104.136 11.6884C103.568 11.2093 103.284 10.5947 103.284 9.84463C103.284 9.07377 103.578 8.45917 104.167 8.00082C104.756 7.54247 105.556 7.3133 106.565 7.3133C107.407 7.3133 108.101 7.45913 108.648 7.75081V7.4383C108.648 6.93828 108.448 6.5216 108.049 6.18826C107.68 5.86598 107.205 5.6883 106.713 5.68813L106.692 5.68824C105.892 5.68824 105.261 6.02158 104.798 6.68827L103.536 5.907C104.23 4.9278 105.251 4.4382 106.597 4.4382ZM55.0657 1.21934L57.4008 9.81338H57.4639L59.8622 2.68814H61.1876L63.5858 9.81338H63.649L65.8579 1.21934H67.341L64.3748 12.1572H62.9232L60.5564 4.93821H60.4933L58.0951 12.1572H56.6435L53.5825 1.21934H55.0657ZM79.648 4.4382C80.0477 4.4382 80.3948 4.5007 80.6893 4.6257L80.2475 6.00075C80.0792 5.93825 79.8058 5.907 79.4271 5.907C78.8801 5.907 78.4068 6.11534 78.007 6.53202C77.6073 6.9487 77.4075 7.44872 77.4075 8.03207V12.1572H75.9875V4.65695H77.3444V5.907H77.4075C77.5547 5.49032 77.8598 5.14655 78.3226 4.87571C78.7854 4.60487 79.2272 4.45903 79.648 4.4382ZM82.772 1.21934V7.96957L86.0539 4.65695H87.8526V4.71946L84.9179 7.62581L88.0104 12.0947V12.1572H86.2748L83.9396 8.62584L82.772 9.78213V12.1572H81.352V1.21934H82.772ZM106.786 8.43833C106.218 8.43833 105.734 8.57375 105.335 8.8446C104.935 9.11544 104.746 9.4592 104.767 9.87588C104.767 10.2509 104.925 10.553 105.24 10.7822C105.556 11.0113 105.924 11.1363 106.345 11.1572C106.934 11.1572 107.46 10.9384 107.922 10.5009C108.385 10.0634 108.627 9.55296 108.648 8.9696C108.206 8.61542 107.586 8.43833 106.786 8.43833ZM98.8657 5.71949C98.1715 5.71949 97.593 5.9695 97.1301 6.46952C96.6883 6.99037 96.4675 7.63622 96.4675 8.40708C96.4675 9.21961 96.6883 9.87588 97.1301 10.3759C97.593 10.8759 98.1715 11.1259 98.8657 11.1259C99.56 11.1259 100.138 10.8759 100.601 10.3759C101.064 9.87588 101.296 9.21961 101.296 8.40708C101.296 7.63622 101.064 6.99037 100.601 6.46952C100.138 5.94867 99.56 5.69866 98.8657 5.71949ZM71.0962 5.71949C70.402 5.71949 69.8129 5.9695 69.3291 6.46952C68.8452 6.96953 68.6033 7.61539 68.6033 8.40708C68.6033 9.21961 68.8452 9.87588 69.3291 10.3759C69.8129 10.8759 70.402 11.1259 71.0962 11.1259C71.7905 11.1259 72.3795 10.8759 72.8634 10.3759C73.3472 9.87588 73.5787 9.21961 73.5576 8.40708C73.5576 7.61539 73.3262 6.96953 72.8634 6.46952C72.3795 5.9695 71.7905 5.71949 71.0962 5.71949ZM122.344 5.71949C121.818 5.71949 121.365 5.87575 120.987 6.18826C120.608 6.50077 120.345 6.93828 120.198 7.5008H124.553C124.51 6.97995 124.3 6.55285 123.921 6.21951C123.543 5.88616 123.017 5.71949 122.344 5.71949Z" fill="var(--fill-0, #5F6368)"/>
<g id="Group_2">
<path id="Vector_2" d="M6.37436 7.37525V5.65644H12.1176C12.1835 6.0068 12.2152 6.36261 12.2123 6.71898C12.2123 7.96902 11.8652 9.56283 10.7291 10.6566C9.62466 11.8129 8.23618 12.4067 6.34281 12.4067C2.90318 12.4067 0 9.62533 0 6.21896C0 2.8126 2.90318 0 6.34281 0C8.26774 0 9.62466 0.750026 10.666 1.71881L9.43532 2.90635C8.12437 1.66732 6.1889 1.33223 4.53123 2.05729C2.87355 2.78235 1.82004 4.42481 1.86182 6.21896C1.86182 8.71905 3.84986 10.7191 6.34281 10.7191C7.98373 10.7191 8.93042 10.0628 9.52999 9.46907C10.0033 9.00031 10.3189 8.31278 10.4451 7.37525H6.37436Z" fill="var(--fill-0, #4285F4)"/>
<path id="Vector_3" d="M20.9533 8.40599C20.9533 10.7186 19.1231 12.4061 16.8826 12.4061C14.6421 12.4061 12.8434 10.7186 12.8434 8.40599C12.8434 6.09341 14.6737 4.40586 16.8826 4.40586C19.0915 4.40586 20.9533 6.09341 20.9533 8.40599ZM19.1546 8.40599C19.1546 6.96844 18.1133 5.99966 16.8826 5.99966C15.6519 5.99966 14.6105 6.96844 14.6105 8.40599C14.6105 9.84354 15.6835 10.8436 16.8826 10.8436C18.0817 10.8436 19.1546 9.84354 19.1546 8.40599Z" fill="var(--fill-0, #EA4335)"/>
<path id="Vector_4" d="M29.7891 8.40599C29.7891 10.7186 27.9588 12.4061 25.7183 12.4061C23.4779 12.4061 21.6791 10.7186 21.6791 8.40599C21.6791 6.09341 23.5094 4.40586 25.7183 4.40586C27.9273 4.40586 29.7891 6.09341 29.7891 8.40599ZM27.9904 8.40599C27.9904 6.96844 26.949 5.99966 25.7183 5.99966C24.4877 5.99966 23.4463 6.96844 23.4463 8.40599C23.4463 9.84354 24.5192 10.8436 25.7183 10.8436C26.9175 10.8436 27.9904 9.84354 27.9904 8.40599Z" fill="var(--fill-0, #FBBC04)"/>
<path id="Vector_5" d="M38.2462 4.65586V11.8436C38.2462 14.7812 36.479 16 34.3963 16C32.4398 16 31.2722 14.6875 30.8305 13.6249L32.3767 12.9999C32.6607 13.6562 33.3234 14.4374 34.3963 14.4374C35.7532 14.4374 36.5737 13.5937 36.5737 12.0936V11.4998H36.5106C35.9669 12.1028 35.1805 12.435 34.3648 12.4061C32.3767 12.4061 30.5149 10.6561 30.5149 8.43724C30.5149 6.18717 32.3767 4.40586 34.3648 4.40586C35.343 4.40586 36.1004 4.84337 36.5106 5.31214H36.5737V4.65586H38.2462ZM36.6999 8.43724C36.6999 7.03095 35.7532 5.99966 34.5225 5.99966C33.3234 5.99966 32.282 7.03095 32.282 8.43724C32.282 9.81229 33.3234 10.8436 34.5225 10.8436C35.7532 10.8436 36.6999 9.81229 36.6999 8.43724Z" fill="var(--fill-0, #4285F4)"/>
<path id="Vector_6" d="M39.4769 0.468875H41.244V12.188H39.4769V0.468875Z" fill="var(--fill-0, #34A853)"/>
<path id="Vector_7" d="M48.0917 9.71854L49.4802 10.6561C49.0384 11.2811 47.9655 12.4061 46.1037 12.4061C43.8001 12.4061 42.096 10.6561 42.096 8.40599C42.096 6.03091 43.8316 4.40586 45.9143 4.40586C47.9971 4.40586 49.0384 6.06216 49.354 6.96844L49.5433 7.40596L44.1472 9.62478C44.5574 10.4373 45.1885 10.8436 46.1037 10.8436C47.0188 10.8436 47.6184 10.4061 48.0917 9.71854ZM43.8632 8.28099L47.4606 6.81219C47.2713 6.31217 46.6717 5.96841 45.9775 5.96841C45.0623 5.96841 43.8001 6.74969 43.8632 8.28099Z" fill="var(--fill-0, #EA4335)"/>
</g>
</g>
</svg>
