<svg preserveAspectRatio="none" width="100%" height="100%" overflow="visible" style="display: block;" viewBox="0 0 21.6 21.6" fill="none" xmlns="http://www.w3.org/2000/svg">
<g id="Google__G__logo 1">
<path id="Vector" d="M20.304 11.025C20.304 10.323 20.241 9.648 20.124 9H10.8V12.834H16.128C15.894 14.067 15.192 15.111 14.139 15.813V18.306H17.352C19.224 16.578 20.304 14.04 20.304 11.025Z" fill="var(--fill-0, #4285F4)"/>
<path id="Vector_2" d="M10.8 20.7C13.473 20.7 15.714 19.818 17.352 18.306L14.139 15.813C13.257 16.407 12.132 16.767 10.8 16.767C8.22599 16.767 6.03899 15.03 5.25599 12.69H1.96199V15.246C3.59099 18.477 6.92999 20.7 10.8 20.7Z" fill="var(--fill-0, #34A853)"/>
<path id="Vector_3" d="M5.256 12.681C5.058 12.087 4.941 11.457 4.941 10.8C4.941 10.143 5.058 9.51295 5.256 8.91895V6.36295H1.962C1.287 7.69495 0.9 9.19795 0.9 10.8C0.9 12.402 1.287 13.905 1.962 15.237L4.527 13.239L5.256 12.681Z" fill="var(--fill-0, #FBBC05)"/>
<path id="Vector_4" d="M10.8 4.842C12.258 4.842 13.554 5.346 14.589 6.318L17.424 3.483C15.705 1.881 13.473 0.9 10.8 0.9C6.92999 0.9 3.59099 3.123 1.96199 6.363L5.25599 8.919C6.03899 6.579 8.22599 4.842 10.8 4.842Z" fill="var(--fill-0, #EA4335)"/>
<g id="Vector_5">
</g>
</g>
</svg>
