<svg preserveAspectRatio="none" width="100%" height="100%" overflow="visible" style="display: block;" viewBox="0 0 19.2 19.2" fill="none" xmlns="http://www.w3.org/2000/svg">
<path id="Vector" d="M13.35 12.4586H11.1V19.2C13.4862 18.8202 15.6423 17.5491 17.1382 15.6404C18.6341 13.7317 19.3598 11.3257 19.1705 8.90236C18.9811 6.47906 17.8907 4.21667 16.1168 2.56657C14.3429 0.916475 12.0158 0 9.6 0C7.18416 0 4.85713 0.916475 3.0832 2.56657C1.30926 4.21667 0.218861 6.47906 0.0295409 8.90236C-0.159779 11.3257 0.565904 13.7317 2.0618 15.6404C3.5577 17.5491 5.71383 18.8202 8.1 19.2V12.4586H5.65001V9.6413H8.1V7.37739C8.23334 4.3924 10.1667 3.25206 13.9 3.95639V6.32091H12.6C11.6333 6.35445 11.1333 6.85754 11.1 7.83018V9.6413H13.775" fill="var(--fill-0, #1877F2)"/>
</svg>
