<svg preserveAspectRatio="none" width="100%" height="100%" overflow="visible" style="display: block;" viewBox="0 0 22.7152 20" fill="none" xmlns="http://www.w3.org/2000/svg">
<g id="Logo">
<path id="Vector" d="M20.7709 0H7.50728C6.94549 0 6.49007 0.455424 6.49007 1.01722V16.8636C6.49007 17.4254 6.94549 17.8808 7.50728 17.8808H20.7709C21.3327 17.8808 21.7881 17.4254 21.7881 16.8636V1.01722C21.7881 0.455424 21.3327 0 20.7709 0Z" fill="var(--fill-0, #0055AA)"/>
<path id="Vector_2" d="M21.7219 9.27152V10.7947L22.7152 10.2649C22.7152 10.2649 22.7152 9.80132 22.3841 9.66887L21.7219 9.27152ZM6.49007 12.1192V16.755H11.5894V12.1192H6.49007Z" fill="var(--fill-0, #113366)"/>
<path id="Vector_3" d="M6.49007 2.84768V7.48344H11.5894V2.84768H6.49007ZM11.5894 7.48344V12.1192H16.6887V7.48344H11.5894ZM16.6887 12.1192V16.755H21.7881V12.1192H16.6887Z" fill="var(--fill-0, #1177DD)"/>
<path id="Vector_4" d="M11.5894 2.84768V7.48344H16.6887V2.84768H11.5894ZM16.6887 7.48344V12.1192H21.7881V7.48344H16.6887Z" fill="var(--fill-0, #33AAEE)"/>
<path id="Vector_5" d="M16.6887 2.84768H21.7881V7.48344H16.6887V2.84768Z" fill="var(--fill-0, #55CCFF)"/>
<path id="Vector_6" d="M22.7152 10.1987L14.0397 15.1656C14.0397 15.1656 22.053 20 22.2517 19.8675C22.5828 19.6689 22.7152 19.1391 22.7152 18.6755V10.1987Z" fill="var(--fill-0, #1199EE)"/>
<path id="Vector_7" d="M5.96026 10.5298C5.69536 10.7285 5.56291 10.9934 5.56291 11.3245V19.0728C5.56291 19.6026 5.96026 20 6.49007 20H21.7219C21.9868 20 22.053 20 22.2517 19.8675" fill="var(--fill-0, #22AAEE)"/>
<path id="Vector_8" d="M10.3735 4.30464H1.01722C0.455424 4.30464 0 4.76006 0 5.32185V14.6781C0 15.2399 0.455424 15.6954 1.01722 15.6954H10.3735C10.9353 15.6954 11.3907 15.2399 11.3907 14.6781V5.32185C11.3907 4.76006 10.9353 4.30464 10.3735 4.30464Z" fill="var(--fill-0, #1188EE)"/>
<path id="Vector_9" d="M5.62914 8.1457C6.55629 8.1457 7.08609 8.87417 7.08609 10.0662C7.08609 11.2583 6.49007 11.9205 5.56291 11.9205C4.83444 11.9205 4.10596 11.2583 4.10596 10.0662C4.10596 9.07285 4.56954 8.1457 5.62914 8.1457ZM5.56291 13.1126C7.28477 13.1126 8.47682 11.9205 8.47682 10C8.47682 8.34437 7.41722 6.95364 5.62914 6.95364C3.77483 6.95364 2.71523 8.27815 2.71523 10.1325C2.71523 11.9205 4.03974 13.1126 5.56291 13.1126Z" fill="var(--fill-0, white)"/>
</g>
</svg>
