<svg preserveAspectRatio="none" width="100%" height="100%" overflow="visible" style="display: block;" viewBox="0 0 16 16" fill="none" xmlns="http://www.w3.org/2000/svg">
<path id="Artwork" fill-rule="evenodd" clip-rule="evenodd" d="M9.41161 0C10.7817 4.22856e-05 11.8937 1.11054 11.8938 2.48214C11.8938 2.59814 11.8843 2.7119 11.8688 2.82321H13.2607C14.7739 2.82321 15.9998 4.04993 16 5.56161V7.94018C16 8.19585 15.858 8.43102 15.6313 8.54911C15.4044 8.66716 15.13 8.64854 14.9205 8.50179C14.7385 8.37429 14.5214 8.30089 14.2875 8.30089C13.6744 8.30101 13.1768 8.79796 13.1768 9.41161C13.1768 10.0252 13.6744 10.5222 14.2875 10.5223C14.5203 10.5223 14.7384 10.4487 14.9223 10.3205C15.1318 10.1745 15.4048 10.1569 15.6313 10.275C15.8577 10.3932 16 10.6276 16 10.883V13.2607C16 14.7725 14.774 16 13.2607 16H10.883C10.6274 16 10.3922 15.858 10.2741 15.6313C10.1561 15.4044 10.1747 15.13 10.3214 14.9205C10.449 14.7383 10.5223 14.5222 10.5223 14.2875C10.5222 13.6739 10.0247 13.1768 9.41161 13.1768C8.79847 13.1768 8.30101 13.6739 8.30089 14.2875C8.30089 14.5212 8.37434 14.7382 8.50268 14.9223C8.64874 15.1318 8.66631 15.4048 8.54821 15.6313C8.43003 15.8577 8.19563 16 7.94018 16H5.56161C4.04846 15.9998 2.82321 14.7724 2.82321 13.2607V11.8688C2.71174 11.8843 2.59797 11.8938 2.48214 11.8938C1.11208 11.8937 4.22964e-05 10.7832 0 9.41161C0 8.03997 1.11205 6.9295 2.48214 6.92946C2.59806 6.92946 2.71182 6.93887 2.82321 6.95446V5.56161C2.82338 4.05003 4.04855 2.82338 5.56161 2.82321H6.95446C6.93896 2.71181 6.92946 2.59807 6.92946 2.48214C6.9295 1.11052 8.04151 0 9.41161 0ZM9.41161 1.37143C8.79842 1.37143 8.30093 1.86845 8.30089 2.48214C8.30089 2.71694 8.37412 2.93291 8.50179 3.11518C8.64846 3.32451 8.66694 3.59821 8.54911 3.825C8.43106 4.05187 8.19592 4.19464 7.94018 4.19464H5.56161C4.80642 4.1948 4.1948 4.807 4.19464 5.56161V7.94018C4.19464 8.19563 4.05236 8.43003 3.82589 8.54821C3.59947 8.66636 3.32649 8.6487 3.11696 8.50268C2.93306 8.37447 2.71502 8.30089 2.48214 8.30089C1.86896 8.30093 1.37143 8.7979 1.37143 9.41161C1.37147 10.0253 1.86899 10.5223 2.48214 10.5223C2.71609 10.5223 2.9331 10.4489 3.11518 10.3214C3.32453 10.1747 3.59819 10.1562 3.825 10.2741C4.05187 10.3922 4.19464 10.6273 4.19464 10.883V13.2607C4.19464 14.0155 4.80632 14.6284 5.56161 14.6286H6.95446C6.93893 14.5173 6.92946 14.4035 6.92946 14.2875C6.92958 12.9159 8.04156 11.8054 9.41161 11.8054C10.7816 11.8054 11.8936 12.916 11.8938 14.2875C11.8938 14.4034 11.8842 14.5172 11.8688 14.6286H13.2607C14.0161 14.6286 14.6286 14.0156 14.6286 13.2607V11.8679C14.5172 11.8834 14.4034 11.8938 14.2875 11.8938C12.9175 11.8936 11.8054 10.7832 11.8054 9.41161C11.8054 8.04003 12.9175 6.92958 14.2875 6.92946C14.4032 6.92946 14.5172 6.93806 14.6286 6.95357V5.56161C14.6284 4.8069 14.016 4.19464 13.2607 4.19464H10.883C10.6276 4.19464 10.3932 4.05234 10.275 3.82589C10.1568 3.59944 10.1745 3.32651 10.3205 3.11696C10.4489 2.93289 10.5223 2.71584 10.5223 2.48214C10.5223 1.86847 10.0248 1.37147 9.41161 1.37143Z" fill="var(--fill-0, #1A1A1A)" fill-opacity="0.6"/>
</svg>
