<svg width="22" height="22" viewBox="0 0 22 22" fill="none" xmlns="http://www.w3.org/2000/svg">
<path d="M20.304 11.025C20.304 10.323 20.241 9.648 20.124 9H10.8V12.834H16.128C15.894 14.067 15.192 15.111 14.139 15.813V18.306H17.352C19.224 16.578 20.304 14.04 20.304 11.025Z" fill="#4285F4"/>
<path d="M10.8 20.6995C13.473 20.6995 15.714 19.8175 17.352 18.3055L14.139 15.8125C13.257 16.4065 12.132 16.7665 10.8 16.7665C8.22599 16.7665 6.03899 15.0295 5.25599 12.6895H1.96199V15.2455C3.59099 18.4765 6.92999 20.6995 10.8 20.6995Z" fill="#34A853"/>
<path d="M5.256 12.6813C5.058 12.0873 4.941 11.4573 4.941 10.8003C4.941 10.1433 5.058 9.51328 5.256 8.91928V6.36328H1.962C1.287 7.69528 0.900002 9.19828 0.900002 10.8003C0.900002 12.4023 1.287 13.9053 1.962 15.2373L4.527 13.2393L5.256 12.6813Z" fill="#FBBC05"/>
<path d="M10.8 4.84239C12.258 4.84239 13.554 5.34639 14.589 6.31839L17.424 3.48339C15.705 1.88139 13.473 0.900391 10.8 0.900391C6.92999 0.900391 3.59099 3.12339 1.96199 6.36339L5.25599 8.91939C6.03899 6.57939 8.22599 4.84239 10.8 4.84239Z" fill="#EA4335"/>
</svg>
