<svg viewBox="0 0 16 16" fill="none" xmlns="http://www.w3.org/2000/svg">
<g id="Artwork">
<path fill-rule="evenodd" clip-rule="evenodd" d="M5.25 6.75C5.25 5.23122 6.48122 4 8 4C9.51878 4 10.75 5.23122 10.75 6.75C10.75 8.26878 9.51878 9.5 8 9.5C6.48122 9.5 5.25 8.26878 5.25 6.75ZM8 5.5C7.30964 5.5 6.75 6.05964 6.75 6.75C6.75 7.44036 7.30964 8 8 8C8.69036 8 9.25 7.44036 9.25 6.75C9.25 6.05964 8.69036 5.5 8 5.5Z" fill="var(--fill-0, #1A1A1A)" fill-opacity="0.6"/>
<path fill-rule="evenodd" clip-rule="evenodd" d="M3.74177 14.7738C3.75057 14.7796 3.75952 14.7852 3.76861 14.7906C4.99604 15.5571 6.44629 16 8 16C9.55366 16 11.0039 15.5571 12.2313 14.7907C12.2405 14.7852 12.2495 14.7796 12.2583 14.7737C14.5064 13.3575 16 10.8532 16 8C16 3.58172 12.4183 0 8 0C3.58172 0 0 3.58172 0 8C0 10.8532 1.49369 13.3576 3.74177 14.7738ZM1.5 8C1.5 4.41015 4.41015 1.5 8 1.5C11.5899 1.5 14.5 4.41015 14.5 8C14.5 10.0006 13.5962 11.7901 12.1746 12.9824C11.37 11.5038 9.8033 10.5 8 10.5C6.1967 10.5 4.63004 11.5038 3.82539 12.9824C2.40381 11.7901 1.5 10.0006 1.5 8ZM10.9152 13.8112C10.0385 14.2519 9.0482 14.5 8 14.5C6.9518 14.5 5.96155 14.2519 5.08477 13.8112C5.61567 12.7374 6.72205 12 8 12C9.27795 12 10.3843 12.7374 10.9152 13.8112Z" fill="var(--fill-0, #1A1A1A)" fill-opacity="0.6"/>
</g>
</svg>
