<svg viewBox="0 0 8 8" fill="none" xmlns="http://www.w3.org/2000/svg">
<g id="Frame">
<path id="Union" d="M3.99991 0.700195C4.27605 0.700195 4.49991 0.924053 4.49991 1.2002V3.13379L6.17471 2.16699C6.41373 2.02912 6.72018 2.11076 6.85831 2.34961C6.99619 2.58865 6.91362 2.89413 6.67471 3.03223L4.99893 3.99902L6.67471 4.9668C6.91365 5.10475 6.99587 5.41036 6.85831 5.64941C6.72025 5.88854 6.41385 5.97104 6.17471 5.83301L4.49991 4.86523V6.7998C4.49982 7.07587 4.276 7.2998 3.99991 7.2998C3.72386 7.29976 3.5 7.07584 3.49991 6.7998V4.86523L1.8251 5.83301C1.58599 5.97094 1.28053 5.88849 1.14249 5.64941C1.00468 5.41034 1.08613 5.10483 1.3251 4.9668L2.99991 3.99902L1.3251 3.03223C1.08623 2.89406 1.00448 2.58864 1.14249 2.34961C1.28065 2.11089 1.58614 2.02916 1.8251 2.16699L3.49991 3.13379V1.2002C3.49991 0.924083 3.72381 0.700245 3.99991 0.700195Z" fill="var(--fill-0, #1A1A1A)" fill-opacity="0.6"/>
</g>
</svg>
