<svg viewBox="0 0 16 13" fill="none" xmlns="http://www.w3.org/2000/svg">
<path id="Artwork" fill-rule="evenodd" clip-rule="evenodd" d="M16.0001 3.234V2.75C16.0001 1.23122 14.7689 0 13.2501 0H2.75012C1.23134 0 0.000122082 1.23122 0.000122082 2.75V3.2357C-4.09069e-05 3.24472 -4.0481e-05 3.25374 0.000122082 3.26274V10.25C0.000122082 11.7688 1.23134 13 2.75012 13H13.2501C14.7689 13 16.0001 11.7688 16.0001 10.25V3.26445C16.0003 3.25431 16.0003 3.24416 16.0001 3.234ZM14.5001 10.25C14.5001 10.9404 13.9405 11.5 13.2501 11.5H2.75012C2.05977 11.5 1.50012 10.9404 1.50012 10.25V4.52017L7.15495 7.63964C7.6814 7.92998 8.31895 7.92994 8.84541 7.6396L14.5001 4.52019V10.25ZM14.5001 2.80709L8.12087 6.32619C8.04536 6.3678 7.95484 6.36775 7.87933 6.32615L1.50012 2.80707V2.75C1.50012 2.05964 2.05977 1.5 2.75012 1.5H13.2501C13.9405 1.5 14.5001 2.05964 14.5001 2.75V2.80709Z" fill="var(--fill-0, #1A1A1A)" fill-opacity="0.6"/>
</svg>
