<svg preserveAspectRatio="none" width="100%" height="100%" overflow="visible" style="display: block;" viewBox="0 0 12 11" fill="none" xmlns="http://www.w3.org/2000/svg">
<g id="Artwork">
<path fill-rule="evenodd" clip-rule="evenodd" d="M10.3965 2C10.07 0.845748 9.00878 0 7.75 0C6.49122 0 5.42998 0.845748 5.10352 2H0.75C0.335786 2 0 2.33579 0 2.75C0 3.16421 0.335786 3.5 0.75 3.5H5.10352C5.42998 4.65425 6.49122 5.5 7.75 5.5C9.00878 5.5 10.07 4.65425 10.3965 3.5H11.25C11.6642 3.5 12 3.16421 12 2.75C12 2.33579 11.6642 2 11.25 2H10.3965ZM7.75 1.5C7.05964 1.5 6.5 2.05964 6.5 2.75C6.5 3.44036 7.05964 4 7.75 4C8.44036 4 9 3.44036 9 2.75C9 2.05964 8.44036 1.5 7.75 1.5Z" fill="var(--fill-0, #1A1A1A)" fill-opacity="0.6"/>
<path fill-rule="evenodd" clip-rule="evenodd" d="M4.25 11C2.99122 11 1.92998 10.1543 1.60352 9H0.75C0.335786 9 0 8.66421 0 8.25C0 7.83579 0.335786 7.5 0.75 7.5H1.60352C1.92998 6.34575 2.99122 5.5 4.25 5.5C5.50878 5.5 6.57002 6.34575 6.89648 7.5H11.25C11.6642 7.5 12 7.83579 12 8.25C12 8.66421 11.6642 9 11.25 9H6.89648C6.57002 10.1543 5.50878 11 4.25 11ZM3 8.25C3 7.55964 3.55964 7 4.25 7C4.94036 7 5.5 7.55964 5.5 8.25C5.5 8.94036 4.94036 9.5 4.25 9.5C3.55964 9.5 3 8.94036 3 8.25Z" fill="var(--fill-0, #1A1A1A)" fill-opacity="0.6"/>
</g>
</svg>
