<svg preserveAspectRatio="none" width="100%" height="100%" overflow="visible" style="display: block;" viewBox="0 0 9.6 9.6" fill="none" xmlns="http://www.w3.org/2000/svg">
<path id="Artwork" d="M4.8 0C2.1534 0 0 2.1534 0 4.8C0 7.4466 2.1534 9.6 4.8 9.6C7.4466 9.6 9.6 7.4466 9.6 4.8C9.6 2.1534 7.4466 0 4.8 0ZM7.3704 3.3726L4.5204 6.9726C4.4106 7.1112 4.2456 7.1946 4.0686 7.2C4.0626 7.2 4.056 7.2 4.05 7.2C3.8802 7.2 3.7176 7.128 3.6042 7.0014L2.2542 5.5014C2.0328 5.2548 2.0526 4.8756 2.2986 4.6542C2.5446 4.4322 2.9238 4.4526 3.1458 4.6986L4.0206 5.6706L6.4296 2.628C6.6354 2.3688 7.0122 2.3244 7.2726 2.5296C7.5324 2.7354 7.5762 3.1128 7.3704 3.3726Z" fill="var(--fill-0, #106844)" fill-opacity="0.7"/>
</svg>
