<svg viewBox="0 0 14.4444 17.7778" fill="none" xmlns="http://www.w3.org/2000/svg">
<g id="Artwork">
<path d="M7.22222 11.1111C7.68246 11.1111 8.05556 11.4842 8.05556 11.9444V13.0556C8.05556 13.5158 7.68246 13.8889 7.22222 13.8889C6.76198 13.8889 6.38889 13.5158 6.38889 13.0556V11.9444C6.38889 11.4842 6.76198 11.1111 7.22222 11.1111Z" fill="var(--fill-0, #1A1A1A)" fill-opacity="0.6"/>
<path fill-rule="evenodd" clip-rule="evenodd" d="M7.22222 0C9.6769 0 11.6667 1.98976 11.6667 4.44444V7.23633C13.224 7.37674 14.4444 8.68393 14.4444 10.2778V14.7222C14.4444 16.4098 13.0764 17.7778 11.3889 17.7778H3.05556C1.36802 17.7778 0 16.4098 0 14.7222V10.2778C0 8.68393 1.22049 7.37674 2.77778 7.23633V4.44444C2.77778 1.98976 4.76754 0 7.22222 0ZM3.05556 8.88889C2.28849 8.88889 1.66667 9.51072 1.66667 10.2778V14.7222C1.66667 15.4893 2.28849 16.1111 3.05556 16.1111H11.3889C12.156 16.1111 12.7778 15.4893 12.7778 14.7222V10.2778C12.7778 9.51072 12.156 8.88889 11.3889 8.88889H3.05556ZM7.22222 1.66667C5.68801 1.66667 4.44444 2.91024 4.44444 4.44444V7.22222H10V4.44444C10 2.91024 8.75643 1.66667 7.22222 1.66667Z" fill="var(--fill-0, #1A1A1A)" fill-opacity="0.6"/>
</g>
</svg>
