<svg viewBox="0 0 15.5 15.5" fill="none" xmlns="http://www.w3.org/2000/svg">
<path id="Artwork" fill-rule="evenodd" clip-rule="evenodd" d="M3.76507 0.0552885C4.57879 -0.155675 5.42645 0.252167 5.76859 1.02154L7.06844 3.94821C7.06845 3.94824 7.06843 3.94818 7.06844 3.94821C7.38618 4.66189 7.18212 5.50105 6.57161 5.9891L5.6675 6.71252C6.49166 7.9472 7.55204 9.00713 8.78719 9.83192L9.51068 8.92771C9.52388 8.91121 9.53772 8.89534 9.55215 8.88014C10.0453 8.30968 10.8569 8.12346 11.5524 8.43314L14.4787 9.73285C15.2463 10.075 15.6553 10.9215 15.4443 11.7355L14.8023 14.2106C14.5822 15.057 13.7623 15.6027 12.8985 15.4843L12.8959 15.484C6.20962 14.5444 0.95511 9.29003 0.0165755 2.60455C-0.10382 1.73876 0.442972 0.918809 1.28854 0.697686L1.28998 0.697311L3.76507 0.0552885ZM10.6531 9.90084L9.5409 11.2909C9.30796 11.582 8.89654 11.6578 8.57514 11.4688C6.69831 10.3652 5.13346 8.80155 4.03062 6.92417C3.84183 6.60279 3.91769 6.19154 4.20872 5.95867L5.63472 4.81767C5.71219 4.75575 5.73835 4.64866 5.69814 4.55836L4.398 1.63104C4.39797 1.63096 4.39803 1.63111 4.398 1.63104C4.35408 1.53258 4.24578 1.4803 4.14161 1.50726C4.14158 1.50727 4.14164 1.50725 4.14161 1.50726L1.66804 2.14889C1.66789 2.14893 1.66819 2.14885 1.66804 2.14889C1.55798 2.17791 1.4867 2.28472 1.5021 2.39666C2.34781 8.41888 7.08118 13.1522 13.1047 13.9986L13.0003 14.7413L13.1021 13.9982C13.2161 14.0139 13.3222 13.9414 13.3503 13.834M13.3503 13.834L13.9923 11.3591C13.9923 11.359 13.9923 11.3591 13.9923 11.3591C14.0192 11.2552 13.9675 11.1475 13.8694 11.1035C13.8692 11.1034 13.8695 11.1036 13.8694 11.1035L10.9429 9.80372C10.8531 9.76375 10.7452 9.78849 10.6816 9.86747C10.6724 9.8789 10.6629 9.89003 10.6531 9.90084" fill="var(--fill-0, #1A1A1A)" fill-opacity="0.6"/>
</svg>
